<svg width="12" height="17" viewBox="0 0 12 17" fill="none" xmlns="http://www.w3.org/2000/svg">
<path d="M11.3501 7.25856L3.26305 0.473361C3.08573 0.323369 2.87478 0.204317 2.64236 0.123072C2.40993 0.0418282 2.16063 0 1.90884 0C1.65705 0 1.40775 0.0418282 1.17533 0.123072C0.942901 0.204317 0.731948 0.323369 0.554637 0.473361C0.199395 0.773194 0 1.17879 0 1.60156C0 2.02433 0.199395 2.42993 0.554637 2.72976L7.30658 8.39476L0.554637 14.0598C0.199395 14.3596 0 14.7652 0 15.188C0 15.6107 0.199395 16.0163 0.554637 16.3162C0.732858 16.4645 0.944221 16.5818 1.17661 16.6615C1.40899 16.7411 1.65782 16.7815 1.90884 16.7802C2.15986 16.7815 2.40869 16.7411 2.64108 16.6615C2.87346 16.5818 3.08482 16.4645 3.26305 16.3162L11.3501 9.53096C11.5289 9.3822 11.6708 9.2052 11.7676 9.01019C11.8645 8.81518 11.9143 8.60602 11.9143 8.39476C11.9143 8.18351 11.8645 7.97434 11.7676 7.77933C11.6708 7.58432 11.5289 7.40733 11.3501 7.25856Z" fill="#C2C9D3"/>
</svg>
