<svg width="124" height="25" viewBox="0 0 124 25" fill="none" xmlns="http://www.w3.org/2000/svg">
<path d="M25.906 8.55937C25.2698 7.96019 24.4265 7.59449 23.5284 7.52832C22.6303 7.46215 21.7366 7.69988 21.0087 8.19855C20.2451 7.66502 19.2947 7.42309 18.3488 7.52148C17.4029 7.61988 16.5319 8.05128 15.911 8.72883C15.2902 9.40637 14.9657 10.2797 15.0029 11.173C15.0401 12.0663 15.4362 12.9132 16.1115 13.5431L19.8384 17.0498C20.1505 17.3383 20.5708 17.5 21.0087 17.5C21.4466 17.5 21.8669 17.3383 22.179 17.0498L25.906 13.5431C26.6067 12.8808 27 11.985 27 11.0512C27 10.1175 26.6067 9.22165 25.906 8.55937V8.55937ZM25.0598 12.7651L21.3328 16.2661C21.2904 16.3063 21.2399 16.3383 21.1843 16.3601C21.1287 16.3819 21.069 16.3931 21.0087 16.3931C20.9485 16.3931 20.8888 16.3819 20.8332 16.3601C20.7775 16.3383 20.7271 16.3063 20.6846 16.2661L16.9577 12.7482C16.487 12.2962 16.2235 11.6891 16.2235 11.0569C16.2235 10.4246 16.487 9.81751 16.9577 9.36556C17.4373 8.92074 18.0842 8.67131 18.7582 8.67131C19.4321 8.67131 20.079 8.92074 20.5586 9.36556C20.6144 9.4184 20.6808 9.46034 20.7539 9.48896C20.827 9.51759 20.9055 9.53232 20.9847 9.53232C21.0639 9.53232 21.1424 9.51759 21.2155 9.48896C21.2887 9.46034 21.355 9.4184 21.4108 9.36556C21.8904 8.92074 22.5373 8.67131 23.2113 8.67131C23.8853 8.67131 24.5321 8.92074 25.0117 9.36556C25.4889 9.81159 25.7611 10.4154 25.7701 11.0477C25.779 11.6799 25.5241 12.2904 25.0598 12.7482V12.7651Z" fill="#FF4C62"/>
<path d="M40.5682 8.27273L42.8182 11.9034H42.8864L45.1364 8.27273H46.3807L43.6364 12.6364L46.3807 17H45.1364L42.8864 13.4375H42.8182L40.5682 17H39.3239L42.1364 12.6364L39.3239 8.27273H40.5682ZM48.6254 15.517L51.7788 10.4545H52.9379V17H51.9322V11.9375L48.7958 17H47.6197V10.4545H48.6254V15.517ZM53.8892 11.392V10.4545H59.2074V11.392H57.0597V17H56.054V11.392H53.8892ZM64.0494 17V10.4545H69.1971V17H68.1914V11.392H65.055V17H64.0494ZM71.0337 19.4545V10.4545H72.0053V11.4943H72.1246C72.1985 11.3807 72.3008 11.2358 72.4315 11.0597C72.565 10.8807 72.7553 10.7216 73.0025 10.5824C73.2525 10.4403 73.5906 10.3693 74.0167 10.3693C74.5678 10.3693 75.0536 10.5071 75.4741 10.7827C75.8945 11.0582 76.2227 11.4489 76.4585 11.9545C76.6942 12.4602 76.8121 13.0568 76.8121 13.7443C76.8121 14.4375 76.6942 15.0384 76.4585 15.5469C76.2227 16.0526 75.896 16.4446 75.4783 16.723C75.0607 16.9986 74.5792 17.1364 74.0337 17.1364C73.6133 17.1364 73.2766 17.0668 73.0238 16.9276C72.771 16.7855 72.5763 16.625 72.44 16.446C72.3036 16.2642 72.1985 16.1136 72.1246 15.9943H72.0394V19.4545H71.0337ZM72.0224 13.7273C72.0224 14.2216 72.0948 14.6577 72.2397 15.0355C72.3846 15.4105 72.5962 15.7045 72.8746 15.9176C73.1531 16.1278 73.494 16.233 73.8974 16.233C74.3178 16.233 74.6687 16.1222 74.9499 15.9006C75.234 15.6761 75.4471 15.375 75.5891 14.9972C75.734 14.6165 75.8065 14.1932 75.8065 13.7273C75.8065 13.267 75.7354 12.8523 75.5934 12.483C75.4542 12.1108 75.2425 11.8168 74.9585 11.6009C74.6772 11.3821 74.3235 11.2727 73.8974 11.2727C73.4883 11.2727 73.1445 11.3764 72.8661 11.5838C72.5877 11.7884 72.3775 12.0753 72.2354 12.4446C72.0934 12.8111 72.0224 13.2386 72.0224 13.7273ZM81.0053 17.1364C80.4144 17.1364 79.896 16.9957 79.4499 16.7145C79.0067 16.4332 78.6602 16.0398 78.4102 15.5341C78.163 15.0284 78.0394 14.4375 78.0394 13.7614C78.0394 13.0795 78.163 12.4844 78.4102 11.9759C78.6602 11.4673 79.0067 11.0724 79.4499 10.7912C79.896 10.5099 80.4144 10.3693 81.0053 10.3693C81.5962 10.3693 82.1133 10.5099 82.5565 10.7912C83.0025 11.0724 83.3491 11.4673 83.5962 11.9759C83.8462 12.4844 83.9712 13.0795 83.9712 13.7614C83.9712 14.4375 83.8462 15.0284 83.5962 15.5341C83.3491 16.0398 83.0025 16.4332 82.5565 16.7145C82.1133 16.9957 81.5962 17.1364 81.0053 17.1364ZM81.0053 16.233C81.4542 16.233 81.8235 16.1179 82.1133 15.8878C82.4031 15.6577 82.6175 15.3551 82.7567 14.9801C82.896 14.6051 82.9656 14.1989 82.9656 13.7614C82.9656 13.3239 82.896 12.9162 82.7567 12.5384C82.6175 12.1605 82.4031 11.8551 82.1133 11.6222C81.8235 11.3892 81.4542 11.2727 81.0053 11.2727C80.5565 11.2727 80.1871 11.3892 79.8974 11.6222C79.6076 11.8551 79.3931 12.1605 79.2539 12.5384C79.1147 12.9162 79.0451 13.3239 79.0451 13.7614C79.0451 14.1989 79.1147 14.6051 79.2539 14.9801C79.3931 15.3551 79.6076 15.6577 79.8974 15.8878C80.1871 16.1179 80.5565 16.233 81.0053 16.233ZM84.8075 18.875V16.0625H85.353C85.4865 15.9233 85.6016 15.7727 85.6982 15.6108C85.7947 15.4489 85.8786 15.2571 85.9496 15.0355C86.0234 14.8111 86.0859 14.5384 86.1371 14.2173C86.1882 13.8935 86.2337 13.5028 86.2734 13.0455L86.495 10.4545H90.6541V16.0625H91.6598V18.875H90.6541V17H85.8132V18.875H84.8075ZM86.495 16.0625H89.6484V11.392H87.4325L87.2621 13.0455C87.1911 13.7301 87.103 14.3281 86.9979 14.8395C86.8928 15.3509 86.7251 15.7585 86.495 16.0625ZM94.9208 17.1534C94.506 17.1534 94.1296 17.0753 93.7915 16.919C93.4535 16.7599 93.185 16.5312 92.9862 16.233C92.7873 15.9318 92.6879 15.5682 92.6879 15.142C92.6879 14.767 92.7617 14.4631 92.9094 14.2301C93.0572 13.9943 93.2546 13.8097 93.5018 13.6761C93.7489 13.5426 94.0217 13.4432 94.32 13.3778C94.6211 13.3097 94.9237 13.2557 95.2276 13.2159C95.6254 13.1648 95.9478 13.1264 96.195 13.1009C96.445 13.0724 96.6268 13.0256 96.7404 12.9602C96.8569 12.8949 96.9151 12.7812 96.9151 12.6193V12.5852C96.9151 12.1648 96.8001 11.8381 96.57 11.6051C96.3427 11.3722 95.9975 11.2557 95.5344 11.2557C95.0543 11.2557 94.6779 11.3608 94.4052 11.571C94.1325 11.7812 93.9407 12.0057 93.8299 12.2443L92.8754 11.9034C93.0458 11.5057 93.2731 11.196 93.5572 10.9744C93.8441 10.75 94.1566 10.5937 94.4947 10.5057C94.8356 10.4148 95.1708 10.3693 95.5004 10.3693C95.7106 10.3693 95.9521 10.3949 96.2248 10.446C96.5004 10.4943 96.766 10.5952 97.0217 10.7486C97.2802 10.902 97.4947 11.1335 97.6651 11.4432C97.8356 11.7528 97.9208 12.1676 97.9208 12.6875V17H96.9151V16.1136H96.864C96.7958 16.2557 96.6822 16.4077 96.5231 16.5696C96.364 16.7315 96.1523 16.8693 95.8881 16.983C95.6239 17.0966 95.3015 17.1534 94.9208 17.1534ZM95.0742 16.25C95.4719 16.25 95.8072 16.1719 96.0799 16.0156C96.3555 15.8594 96.5629 15.6577 96.7021 15.4105C96.8441 15.1634 96.9151 14.9034 96.9151 14.6307V13.7102C96.8725 13.7614 96.7788 13.8082 96.6339 13.8509C96.4918 13.8906 96.3271 13.9261 96.1396 13.9574C95.9549 13.9858 95.7745 14.0114 95.5984 14.0341C95.4251 14.054 95.2844 14.071 95.1765 14.0852C94.9151 14.1193 94.6708 14.1747 94.4435 14.2514C94.2191 14.3253 94.0373 14.4375 93.8981 14.5881C93.7617 14.7358 93.6935 14.9375 93.6935 15.1932C93.6935 15.5426 93.8228 15.8068 94.0813 15.9858C94.3427 16.1619 94.6737 16.25 95.0742 16.25ZM99.3473 17L102.006 13.6761L99.3814 10.4545H100.575L102.756 13.25H103.302V10.4545H104.308V13.25H104.836L107.018 10.4545H108.211L105.603 13.6761L108.245 17H107.035L104.819 14.1875H104.308V17H103.302V14.1875H102.79L100.558 17H99.3473Z" fill="#FF4C62"/>
<rect x="0.5" y="0.5" width="123" height="24" rx="2.5" stroke="#FF4C62"/>
</svg>
