<svg width="159" height="30" viewBox="0 0 159 30" fill="none" xmlns="http://www.w3.org/2000/svg">
<path d="M20.0002 10C19.2333 9.99997 18.4766 10.1764 17.7887 10.5156C17.1008 10.8548 16.5002 11.3477 16.0333 11.9561C15.5664 12.5646 15.2457 13.2723 15.0961 14.0245C14.9464 14.7767 14.9719 15.5533 15.1704 16.2941C15.3689 17.0349 15.7352 17.7202 16.2409 18.2968C16.7466 18.8734 17.3781 19.326 18.0867 19.6194C18.7953 19.9129 19.5619 20.0395 20.3272 19.9893C21.0925 19.9391 21.836 19.7135 22.5002 19.33C22.56 19.2987 22.6128 19.2557 22.6555 19.2035C22.6982 19.1513 22.7299 19.091 22.7487 19.0263C22.7674 18.9615 22.7729 18.8936 22.7648 18.8267C22.7567 18.7597 22.7351 18.6951 22.7013 18.6367C22.6676 18.5784 22.6224 18.5274 22.5684 18.4869C22.5145 18.4465 22.4529 18.4174 22.3874 18.4013C22.3219 18.3853 22.2538 18.3826 22.1873 18.3936C22.1208 18.4045 22.0571 18.4288 22.0002 18.465C21.2377 18.9052 20.3512 19.0816 19.4782 18.9667C18.6053 18.8518 17.7946 18.4521 17.172 17.8295C16.5493 17.2069 16.1495 16.3963 16.0345 15.5233C15.9195 14.6504 16.0957 13.7639 16.5359 13.0013C16.9761 12.2387 17.6555 11.6427 18.469 11.3056C19.2824 10.9685 20.1843 10.9093 21.0348 11.137C21.8854 11.3648 22.637 11.8668 23.1732 12.5652C23.7093 13.2637 24 14.1195 24.0002 15V15.375C24.0002 15.6071 23.908 15.8296 23.7439 15.9937C23.5798 16.1578 23.3573 16.25 23.1252 16.25C22.8932 16.25 22.6706 16.1578 22.5065 15.9937C22.3424 15.8296 22.2502 15.6071 22.2502 15.375V13.25C22.2502 13.1174 22.1975 12.9902 22.1038 12.8964C22.01 12.8027 21.8828 12.75 21.7502 12.75C21.6339 12.7474 21.5204 12.7854 21.4291 12.8575C21.3379 12.9296 21.2746 13.0313 21.2502 13.145C20.8827 12.8908 20.4471 12.7531 20.0002 12.75C19.6238 12.7455 19.2523 12.8355 18.9197 13.0118C18.587 13.1881 18.304 13.445 18.0964 13.759C17.8888 14.0731 17.7633 14.4342 17.7314 14.8092C17.6995 15.1843 17.7622 15.5614 17.9139 15.906C18.0655 16.2506 18.3011 16.5516 18.5992 16.7815C18.8973 17.0114 19.2483 17.1628 19.62 17.2219C19.9918 17.281 20.3725 17.2459 20.7272 17.1198C21.0819 16.9937 21.3992 16.7806 21.6502 16.5C21.8878 16.8077 22.2153 17.0336 22.5873 17.1465C22.9592 17.2594 23.3571 17.2535 23.7256 17.1298C24.0941 17.0061 24.4149 16.7706 24.6433 16.4561C24.8717 16.1416 24.9965 15.7637 25.0002 15.375V15C25.0002 14.3434 24.8709 13.6932 24.6196 13.0866C24.3683 12.48 24 11.9288 23.5358 11.4645C23.0715 11.0002 22.5203 10.6319 21.9136 10.3806C21.307 10.1293 20.6568 10 20.0002 10ZM20.0002 16.25C19.753 16.25 19.5113 16.1767 19.3058 16.0393C19.1002 15.902 18.94 15.7068 18.8454 15.4784C18.7508 15.2499 18.726 14.9986 18.7742 14.7561C18.8225 14.5137 18.9415 14.2909 19.1163 14.1161C19.2912 13.9413 19.5139 13.8222 19.7564 13.774C19.9988 13.7258 20.2502 13.7505 20.4786 13.8451C20.707 13.9398 20.9022 14.1 21.0396 14.3055C21.1769 14.5111 21.2502 14.7528 21.2502 15C21.2502 15.3315 21.1185 15.6495 20.8841 15.8839C20.6497 16.1183 20.3317 16.25 20.0002 16.25Z" fill="#4F4F4F"/>
<path d="M38.0741 20V12.3636H39.2474V20H38.0741ZM38.6707 11.0909C38.442 11.0909 38.2448 11.013 38.079 10.8572C37.9166 10.7015 37.8354 10.5142 37.8354 10.2955C37.8354 10.0767 37.9166 9.88944 38.079 9.73366C38.2448 9.57789 38.442 9.5 38.6707 9.5C38.8994 9.5 39.0949 9.57789 39.2573 9.73366C39.423 9.88944 39.5059 10.0767 39.5059 10.2955C39.5059 10.5142 39.423 10.7015 39.2573 10.8572C39.0949 11.013 38.8994 11.0909 38.6707 11.0909ZM42.5696 15.4062V20H41.3963V12.3636H42.5299V13.5568H42.6293C42.8083 13.169 43.0801 12.8575 43.4446 12.6222C43.8092 12.3835 44.2799 12.2642 44.8566 12.2642C45.3736 12.2642 45.826 12.3703 46.2138 12.5824C46.6016 12.7912 46.9032 13.1094 47.1186 13.5369C47.3341 13.9612 47.4418 14.4981 47.4418 15.1477V20H46.2685V15.2273C46.2685 14.6274 46.1127 14.16 45.8012 13.8253C45.4896 13.4872 45.0621 13.3182 44.5185 13.3182C44.144 13.3182 43.8092 13.3994 43.5142 13.5618C43.2226 13.7242 42.9922 13.9612 42.8232 14.2727C42.6542 14.5843 42.5696 14.9621 42.5696 15.4062ZM52.9864 12.3636V13.358H48.8699V12.3636H52.9864ZM50.1028 20V11.3097C50.1028 10.8722 50.2056 10.5076 50.4111 10.2159C50.6166 9.92424 50.8834 9.70549 51.2115 9.55966C51.5396 9.41383 51.886 9.34091 52.2506 9.34091C52.5389 9.34091 52.7742 9.36411 52.9565 9.41051C53.1388 9.45691 53.2747 9.5 53.3642 9.53977L53.0261 10.554C52.9665 10.5341 52.8836 10.5092 52.7776 10.4794C52.6748 10.4496 52.5389 10.4347 52.3699 10.4347C51.9821 10.4347 51.702 10.5324 51.5297 10.728C51.3607 10.9235 51.2761 11.2102 51.2761 11.5881V20H50.1028ZM57.4185 20.1591C56.7291 20.1591 56.1243 19.995 55.6039 19.6669C55.0869 19.3388 54.6825 18.8797 54.3908 18.2898C54.1025 17.6998 53.9583 17.0104 53.9583 16.2216C53.9583 15.4261 54.1025 14.7318 54.3908 14.1385C54.6825 13.5452 55.0869 13.0845 55.6039 12.7564C56.1243 12.4283 56.7291 12.2642 57.4185 12.2642C58.1079 12.2642 58.7112 12.4283 59.2282 12.7564C59.7486 13.0845 60.1529 13.5452 60.4413 14.1385C60.7329 14.7318 60.8788 15.4261 60.8788 16.2216C60.8788 17.0104 60.7329 17.6998 60.4413 18.2898C60.1529 18.8797 59.7486 19.3388 59.2282 19.6669C58.7112 19.995 58.1079 20.1591 57.4185 20.1591ZM57.4185 19.1051C57.9422 19.1051 58.3731 18.9709 58.7112 18.7024C59.0492 18.4339 59.2995 18.081 59.4619 17.6435C59.6243 17.206 59.7055 16.732 59.7055 16.2216C59.7055 15.7112 59.6243 15.2356 59.4619 14.7947C59.2995 14.3539 59.0492 13.9976 58.7112 13.7259C58.3731 13.4541 57.9422 13.3182 57.4185 13.3182C56.8949 13.3182 56.464 13.4541 56.1259 13.7259C55.7879 13.9976 55.5376 14.3539 55.3752 14.7947C55.2128 15.2356 55.1316 15.7112 55.1316 16.2216C55.1316 16.732 55.2128 17.206 55.3752 17.6435C55.5376 18.081 55.7879 18.4339 56.1259 18.7024C56.464 18.9709 56.8949 19.1051 57.4185 19.1051ZM68.5363 22.6847C67.5221 22.6847 66.6255 22.5455 65.8466 22.267C65.0677 21.992 64.4132 21.5859 63.8828 21.049C63.3525 20.5121 62.9515 19.8542 62.6797 19.0753C62.4079 18.2964 62.2721 17.4048 62.2721 16.4006C62.2721 15.4295 62.4096 14.5611 62.6847 13.7955C62.9631 13.0298 63.3658 12.3802 63.8928 11.8466C64.4231 11.3097 65.0661 10.9003 65.8218 10.6186C66.5808 10.3369 67.4392 10.196 68.3971 10.196C69.3284 10.196 70.1437 10.3485 70.8431 10.6534C71.5457 10.955 72.1324 11.3643 72.603 11.8814C73.077 12.3951 73.4316 12.9735 73.6669 13.6165C73.9056 14.2595 74.0249 14.9223 74.0249 15.6051C74.0249 16.0857 74.0017 16.5729 73.9553 17.0668C73.9089 17.5606 73.8111 18.0147 73.662 18.429C73.5128 18.84 73.2825 19.1714 72.9709 19.4233C72.6627 19.6752 72.2451 19.8011 71.7181 19.8011C71.4861 19.8011 71.2309 19.7647 70.9525 19.6918C70.674 19.6188 70.4271 19.4979 70.2117 19.3288C69.9962 19.1598 69.8686 18.9328 69.8289 18.6477H69.7692C69.6897 18.84 69.567 19.0223 69.4013 19.1946C69.2389 19.367 69.0251 19.5045 68.76 19.6072C68.4981 19.71 68.1783 19.7547 67.8005 19.7415C67.3696 19.7249 66.9901 19.6288 66.662 19.4531C66.3338 19.2741 66.0587 19.0322 65.8367 18.7273C65.6179 18.419 65.4522 18.0627 65.3395 17.6584C65.2301 17.2507 65.1755 16.8116 65.1755 16.3409C65.1755 15.8935 65.2418 15.4841 65.3743 15.1129C65.5069 14.7417 65.6909 14.4169 65.9262 14.1385C66.1648 13.8601 66.4432 13.638 66.7614 13.4723C67.0829 13.3033 67.4293 13.1989 67.8005 13.1591C68.1319 13.1259 68.4335 13.1409 68.7053 13.2038C68.9771 13.2635 69.2008 13.3546 69.3765 13.4773C69.5521 13.5966 69.6632 13.7292 69.7096 13.875H69.7692V13.3182H70.8232V17.8125C70.8232 18.0909 70.9011 18.3362 71.0569 18.5483C71.2126 18.7604 71.4397 18.8665 71.738 18.8665C72.076 18.8665 72.3346 18.7505 72.5135 18.5185C72.6958 18.2865 72.8201 17.9285 72.8864 17.4446C72.956 16.9607 72.9908 16.3409 72.9908 15.5852C72.9908 15.1411 72.9295 14.7036 72.8069 14.2727C72.6875 13.8385 72.5052 13.4325 72.26 13.0547C72.018 12.6768 71.7114 12.3437 71.3402 12.0554C70.969 11.767 70.5332 11.5417 70.0327 11.3793C69.5355 11.2135 68.9704 11.1307 68.3374 11.1307C67.5585 11.1307 66.8608 11.2517 66.2444 11.4936C65.6312 11.7322 65.1092 12.0819 64.6783 12.5426C64.2507 13 63.9243 13.5568 63.6989 14.2131C63.4768 14.866 63.3658 15.6084 63.3658 16.4403C63.3658 17.2855 63.4768 18.0362 63.6989 18.6925C63.9243 19.3487 64.2557 19.9022 64.6932 20.353C65.134 20.8037 65.6793 21.1451 66.3289 21.3771C66.9785 21.6125 67.7275 21.7301 68.576 21.7301C68.9406 21.7301 69.3002 21.6953 69.6549 21.6257C70.0095 21.5561 70.3227 21.4799 70.5945 21.397C70.8663 21.3142 71.0618 21.2528 71.1811 21.2131L71.4596 22.1278C71.2541 22.214 70.9856 22.3002 70.6542 22.3864C70.326 22.4725 69.9747 22.5438 69.6002 22.6001C69.229 22.6565 68.8743 22.6847 68.5363 22.6847ZM67.9596 18.7273C68.4037 18.7273 68.7633 18.6378 69.0384 18.4588C69.3135 18.2798 69.514 18.0097 69.64 17.6484C69.7659 17.2872 69.8289 16.8314 69.8289 16.2812C69.8289 15.7244 69.7593 15.2902 69.6201 14.9787C69.4809 14.6671 69.2754 14.4484 69.0036 14.3224C68.7318 14.1965 68.3971 14.1335 67.9993 14.1335C67.6215 14.1335 67.2983 14.233 67.0299 14.4318C66.7647 14.6274 66.5609 14.8892 66.4184 15.2173C66.2792 15.5421 66.2096 15.8968 66.2096 16.2812C66.2096 16.7055 66.2659 17.1049 66.3786 17.4794C66.4913 17.8506 66.6752 18.1522 66.9304 18.3842C67.1856 18.6129 67.5287 18.7273 67.9596 18.7273ZM79.1021 12.3636V13.358H75.1447V12.3636H79.1021ZM76.2982 10.5341H77.4714V17.8125C77.4714 18.1439 77.5195 18.3925 77.6156 18.5582C77.7151 18.7206 77.841 18.83 77.9935 18.8864C78.1492 18.9394 78.3133 18.9659 78.4857 18.9659C78.6149 18.9659 78.721 18.9593 78.8038 18.946C78.8867 18.9295 78.953 18.9162 79.0027 18.9062L79.2413 19.9602C79.1618 19.9901 79.0508 20.0199 78.9082 20.0497C78.7657 20.0829 78.5851 20.0994 78.3663 20.0994C78.0349 20.0994 77.7101 20.0282 77.3919 19.8857C77.077 19.7431 76.8152 19.526 76.6064 19.2344C76.4009 18.9427 76.2982 18.5748 76.2982 18.1307V10.5341ZM82.2044 15.4062V20H81.0311V9.81818H82.2044V13.5568H82.3038C82.4828 13.1624 82.7513 12.8492 83.1092 12.6172C83.4705 12.3819 83.9511 12.2642 84.551 12.2642C85.0714 12.2642 85.5271 12.3686 85.9182 12.5774C86.3093 12.7829 86.6125 13.0994 86.828 13.527C87.0467 13.9512 87.1561 14.4915 87.1561 15.1477V20H85.9828V15.2273C85.9828 14.6207 85.8254 14.1518 85.5105 13.8203C85.199 13.4856 84.7664 13.3182 84.2129 13.3182C83.8285 13.3182 83.4838 13.3994 83.1788 13.5618C82.8772 13.7242 82.6386 13.9612 82.4629 14.2727C82.2906 14.5843 82.2044 14.9621 82.2044 15.4062ZM92.5043 20.1591C91.7685 20.1591 91.1338 19.9967 90.6002 19.6719C90.0699 19.3438 89.6605 18.8864 89.3722 18.2997C89.0872 17.7098 88.9446 17.0237 88.9446 16.2415C88.9446 15.4593 89.0872 14.7699 89.3722 14.1733C89.6605 13.5734 90.0616 13.1061 90.5753 12.7713C91.0924 12.4332 91.6956 12.2642 92.385 12.2642C92.7827 12.2642 93.1755 12.3305 93.5632 12.4631C93.951 12.5956 94.304 12.8111 94.6222 13.1094C94.9404 13.4044 95.1939 13.7955 95.3828 14.2827C95.5718 14.7699 95.6662 15.3698 95.6662 16.0824V16.5795H89.7799V15.5653H94.473C94.473 15.1345 94.3869 14.75 94.2145 14.4119C94.0455 14.0739 93.8035 13.8071 93.4887 13.6115C93.1771 13.416 92.8092 13.3182 92.385 13.3182C91.9176 13.3182 91.5133 13.4342 91.1719 13.6662C90.8338 13.8949 90.5737 14.1932 90.3914 14.5611C90.2091 14.929 90.1179 15.3234 90.1179 15.7443V16.4205C90.1179 16.9972 90.2174 17.486 90.4162 17.8871C90.6184 18.2848 90.8985 18.5881 91.2564 18.7969C91.6144 19.0024 92.0303 19.1051 92.5043 19.1051C92.8125 19.1051 93.0909 19.062 93.3395 18.9759C93.5914 18.8864 93.8085 18.7538 93.9908 18.5781C94.1731 18.3991 94.314 18.1771 94.4134 17.9119L95.5469 18.2301C95.4276 18.6146 95.2271 18.9527 94.9453 19.2443C94.6636 19.5327 94.3156 19.758 93.9013 19.9205C93.487 20.0795 93.0213 20.1591 92.5043 20.1591ZM99.1811 20L96.8544 12.3636H98.0874L99.738 18.2102H99.8175L101.448 12.3636H102.701L104.312 18.1903H104.391L106.042 12.3636H107.275L104.948 20H103.795L102.124 14.1335H102.005L100.335 20H99.1811ZM108.826 20V12.3636H109.999V20H108.826ZM109.423 11.0909C109.194 11.0909 108.997 11.013 108.831 10.8572C108.669 10.7015 108.587 10.5142 108.587 10.2955C108.587 10.0767 108.669 9.88944 108.831 9.73366C108.997 9.57789 109.194 9.5 109.423 9.5C109.651 9.5 109.847 9.57789 110.009 9.73366C110.175 9.88944 110.258 10.0767 110.258 10.2955C110.258 10.5142 110.175 10.7015 110.009 10.8572C109.847 11.013 109.651 11.0909 109.423 11.0909ZM115.251 20.1591C114.535 20.1591 113.918 19.9901 113.401 19.652C112.884 19.3139 112.486 18.8482 112.208 18.255C111.93 17.6617 111.79 16.9839 111.79 16.2216C111.79 15.446 111.933 14.7616 112.218 14.1683C112.506 13.5717 112.907 13.1061 113.421 12.7713C113.938 12.4332 114.541 12.2642 115.231 12.2642C115.768 12.2642 116.252 12.3636 116.682 12.5625C117.113 12.7614 117.466 13.0398 117.741 13.3977C118.016 13.7557 118.187 14.1733 118.253 14.6506H117.08C116.991 14.3026 116.792 13.9943 116.484 13.7259C116.179 13.4541 115.768 13.3182 115.251 13.3182C114.793 13.3182 114.392 13.4375 114.047 13.6761C113.706 13.9115 113.439 14.2446 113.247 14.6754C113.058 15.103 112.964 15.6051 112.964 16.1818C112.964 16.7718 113.056 17.2855 113.242 17.723C113.431 18.1605 113.696 18.5002 114.038 18.7422C114.382 18.9841 114.787 19.1051 115.251 19.1051C115.555 19.1051 115.832 19.0521 116.081 18.946C116.329 18.84 116.54 18.6875 116.712 18.4886C116.885 18.2898 117.007 18.0511 117.08 17.7727H118.253C118.187 18.2235 118.023 18.6295 117.761 18.9908C117.503 19.3487 117.16 19.6338 116.732 19.8459C116.308 20.0547 115.814 20.1591 115.251 20.1591ZM121.062 17.2159L121.042 15.7642H121.281L124.622 12.3636H126.074L122.514 15.9631H122.415L121.062 17.2159ZM119.969 20V9.81818H121.142V20H119.969ZM124.821 20L121.838 16.2216L122.673 15.4062L126.312 20H124.821ZM128.439 20.0795C128.194 20.0795 127.983 19.9917 127.808 19.8161C127.632 19.6404 127.544 19.4299 127.544 19.1847C127.544 18.9394 127.632 18.7289 127.808 18.5533C127.983 18.3776 128.194 18.2898 128.439 18.2898C128.684 18.2898 128.895 18.3776 129.07 18.5533C129.246 18.7289 129.334 18.9394 129.334 19.1847C129.334 19.3471 129.292 19.4962 129.21 19.6321C129.13 19.768 129.022 19.8774 128.886 19.9602C128.754 20.0398 128.605 20.0795 128.439 20.0795ZM131.439 20V12.3636H132.573V13.517H132.652C132.792 13.1392 133.043 12.8326 133.408 12.5973C133.773 12.362 134.184 12.2443 134.641 12.2443C134.727 12.2443 134.835 12.246 134.964 12.2493C135.093 12.2526 135.191 12.2576 135.257 12.2642V13.4574C135.218 13.4474 135.127 13.4325 134.984 13.4126C134.845 13.3894 134.697 13.3778 134.542 13.3778C134.17 13.3778 133.839 13.4557 133.547 13.6115C133.259 13.764 133.03 13.9761 132.861 14.2479C132.695 14.5163 132.613 14.8229 132.613 15.1676V20H131.439ZM141.461 16.8778V12.3636H142.634V20H141.461V18.7074H141.381C141.202 19.0952 140.924 19.425 140.546 19.6967C140.168 19.9652 139.691 20.0994 139.114 20.0994C138.637 20.0994 138.213 19.995 137.841 19.7862C137.47 19.5741 137.179 19.2559 136.966 18.8317C136.754 18.4041 136.648 17.8655 136.648 17.2159V12.3636H137.822V17.1364C137.822 17.6932 137.977 18.1373 138.289 18.4688C138.604 18.8002 139.005 18.9659 139.492 18.9659C139.784 18.9659 140.08 18.8913 140.382 18.7422C140.687 18.593 140.942 18.3643 141.148 18.0561C141.356 17.7479 141.461 17.3551 141.461 16.8778Z" fill="#4F4F4F"/>
<rect x="0.5" y="0.5" width="158" height="29" rx="2.5" stroke="#4F4F4F"/>
</svg>
