<svg width="10" height="11" viewBox="0 0 10 11" fill="none" xmlns="http://www.w3.org/2000/svg">
<path d="M7.67 2.23C7.55133 2.23 7.43533 2.26519 7.33666 2.33112C7.23799 2.39705 7.16108 2.49075 7.11567 2.60039C7.07026 2.71003 7.05838 2.83067 7.08153 2.94705C7.10468 3.06344 7.16182 3.17035 7.24574 3.25426C7.32965 3.33818 7.43656 3.39532 7.55295 3.41847C7.66933 3.44162 7.78997 3.42974 7.89961 3.38433C8.00925 3.33892 8.10295 3.26201 8.16888 3.16334C8.23481 3.06467 8.27 2.94867 8.27 2.83C8.27 2.67087 8.20679 2.51826 8.09426 2.40574C7.98174 2.29321 7.82913 2.23 7.67 2.23ZM9.97 3.44C9.96028 3.02515 9.88258 2.6147 9.74 2.225C9.61287 1.89157 9.41499 1.58964 9.16 1.34C8.91241 1.08371 8.60978 0.887088 8.275 0.765C7.88633 0.61808 7.47542 0.538605 7.06 0.53C6.53 0.5 6.36 0.5 5 0.5C3.64 0.5 3.47 0.5 2.94 0.53C2.52458 0.538605 2.11367 0.61808 1.725 0.765C1.39084 0.888324 1.08847 1.08478 0.84 1.34C0.583713 1.58759 0.387088 1.89022 0.265 2.225C0.11808 2.61367 0.038605 3.02458 0.03 3.44C-2.79397e-08 3.97 0 4.14 0 5.5C0 6.86 -2.79397e-08 7.03 0.03 7.56C0.038605 7.97542 0.11808 8.38633 0.265 8.775C0.387088 9.10978 0.583713 9.41241 0.84 9.66C1.08847 9.91522 1.39084 10.1117 1.725 10.235C2.11367 10.3819 2.52458 10.4614 2.94 10.47C3.47 10.5 3.64 10.5 5 10.5C6.36 10.5 6.53 10.5 7.06 10.47C7.47542 10.4614 7.88633 10.3819 8.275 10.235C8.60978 10.1129 8.91241 9.91629 9.16 9.66C9.41612 9.41129 9.61417 9.1091 9.74 8.775C9.88258 8.3853 9.96028 7.97485 9.97 7.56C9.97 7.03 10 6.86 10 5.5C10 4.14 10 3.97 9.97 3.44ZM9.07 7.5C9.06636 7.81739 9.00888 8.13185 8.9 8.43C8.82017 8.6476 8.69194 8.84421 8.525 9.005C8.36282 9.17025 8.16661 9.29822 7.95 9.38C7.65185 9.48888 7.33739 9.54636 7.02 9.55C6.52 9.575 6.335 9.58 5.02 9.58C3.705 9.58 3.52 9.58 3.02 9.55C2.69045 9.55617 2.3623 9.50543 2.05 9.4C1.84289 9.31404 1.65568 9.18639 1.5 9.025C1.33404 8.86437 1.20742 8.6676 1.13 8.45C1.00793 8.14758 0.940222 7.82597 0.93 7.5C0.93 7 0.9 6.815 0.9 5.5C0.9 4.185 0.9 4 0.93 3.5C0.932241 3.17553 0.991475 2.85397 1.105 2.55C1.19302 2.33896 1.32813 2.15083 1.5 2C1.65191 1.82808 1.83964 1.69155 2.05 1.6C2.35478 1.49002 2.676 1.43254 3 1.43C3.5 1.43 3.685 1.4 5 1.4C6.315 1.4 6.5 1.4 7 1.43C7.31739 1.43364 7.63185 1.49112 7.93 1.6C8.15722 1.68433 8.36115 1.82142 8.525 2C8.68885 2.15359 8.81688 2.34137 8.9 2.55C9.01113 2.85447 9.06864 3.17589 9.07 3.5C9.095 4 9.1 4.185 9.1 5.5C9.1 6.815 9.095 7 9.07 7.5ZM5 2.935C4.49291 2.93599 3.99748 3.08726 3.57633 3.36971C3.15517 3.65216 2.82719 4.0531 2.63382 4.52188C2.44044 4.99066 2.39036 5.50623 2.4899 6.00346C2.58943 6.5007 2.83412 6.95727 3.19304 7.31549C3.55196 7.67371 4.00901 7.91751 4.50643 8.01607C5.00385 8.11464 5.51933 8.06355 5.98773 7.86927C6.45614 7.67498 6.85644 7.34622 7.13806 6.92452C7.41969 6.50281 7.57 6.0071 7.57 5.5C7.57066 5.16255 7.5046 4.8283 7.37562 4.51648C7.24664 4.20465 7.05728 3.9214 6.81843 3.68303C6.57959 3.44465 6.29597 3.25584 5.9839 3.12746C5.67182 2.99909 5.33745 2.93368 5 2.935ZM5 7.165C4.67069 7.165 4.34878 7.06735 4.07498 6.8844C3.80117 6.70144 3.58776 6.44141 3.46174 6.13717C3.33572 5.83293 3.30275 5.49815 3.36699 5.17517C3.43124 4.8522 3.58981 4.55552 3.82267 4.32267C4.05552 4.08981 4.3522 3.93124 4.67517 3.86699C4.99815 3.80275 5.33293 3.83572 5.63717 3.96174C5.94141 4.08776 6.20144 4.30117 6.3844 4.57498C6.56735 4.84878 6.665 5.17069 6.665 5.5C6.665 5.71865 6.62193 5.93516 6.53826 6.13717C6.45459 6.33918 6.33194 6.52272 6.17733 6.67733C6.02272 6.83194 5.83918 6.95459 5.63717 7.03826C5.43516 7.12193 5.21865 7.165 5 7.165Z" fill="#4F4F4F"/>
</svg>
