<svg width="129" height="25" viewBox="0 0 129 25" fill="none" xmlns="http://www.w3.org/2000/svg">
<path d="M22.67 9.23C22.5513 9.23 22.4353 9.26519 22.3367 9.33112C22.238 9.39705 22.1611 9.49075 22.1157 9.60039C22.0703 9.71003 22.0584 9.83067 22.0815 9.94705C22.1047 10.0634 22.1618 10.1704 22.2457 10.2543C22.3296 10.3382 22.4366 10.3953 22.5529 10.4185C22.6693 10.4416 22.79 10.4297 22.8996 10.3843C23.0092 10.3389 23.103 10.262 23.1689 10.1633C23.2348 10.0647 23.27 9.94867 23.27 9.83C23.27 9.67087 23.2068 9.51826 23.0943 9.40574C22.9817 9.29321 22.8291 9.23 22.67 9.23ZM24.97 10.44C24.9603 10.0251 24.8826 9.6147 24.74 9.225C24.6129 8.89157 24.415 8.58964 24.16 8.34C23.9124 8.08371 23.6098 7.88709 23.275 7.765C22.8863 7.61808 22.4754 7.5386 22.06 7.53C21.53 7.5 21.36 7.5 20 7.5C18.64 7.5 18.47 7.5 17.94 7.53C17.5246 7.5386 17.1137 7.61808 16.725 7.765C16.3908 7.88832 16.0885 8.08478 15.84 8.34C15.5837 8.58759 15.3871 8.89022 15.265 9.225C15.1181 9.61367 15.0386 10.0246 15.03 10.44C15 10.97 15 11.14 15 12.5C15 13.86 15 14.03 15.03 14.56C15.0386 14.9754 15.1181 15.3863 15.265 15.775C15.3871 16.1098 15.5837 16.4124 15.84 16.66C16.0885 16.9152 16.3908 17.1117 16.725 17.235C17.1137 17.3819 17.5246 17.4614 17.94 17.47C18.47 17.5 18.64 17.5 20 17.5C21.36 17.5 21.53 17.5 22.06 17.47C22.4754 17.4614 22.8863 17.3819 23.275 17.235C23.6098 17.1129 23.9124 16.9163 24.16 16.66C24.4161 16.4113 24.6142 16.1091 24.74 15.775C24.8826 15.3853 24.9603 14.9749 24.97 14.56C24.97 14.03 25 13.86 25 12.5C25 11.14 25 10.97 24.97 10.44ZM24.07 14.5C24.0664 14.8174 24.0089 15.1319 23.9 15.43C23.8202 15.6476 23.6919 15.8442 23.525 16.005C23.3628 16.1703 23.1666 16.2982 22.95 16.38C22.6519 16.4889 22.3374 16.5464 22.02 16.55C21.52 16.575 21.335 16.58 20.02 16.58C18.705 16.58 18.52 16.58 18.02 16.55C17.6904 16.5562 17.3623 16.5054 17.05 16.4C16.8429 16.314 16.6557 16.1864 16.5 16.025C16.334 15.8644 16.2074 15.6676 16.13 15.45C16.0079 15.1476 15.9402 14.826 15.93 14.5C15.93 14 15.9 13.815 15.9 12.5C15.9 11.185 15.9 11 15.93 10.5C15.9322 10.1755 15.9915 9.85397 16.105 9.55C16.193 9.33896 16.3281 9.15083 16.5 9C16.6519 8.82808 16.8396 8.69155 17.05 8.6C17.3548 8.49002 17.676 8.43254 18 8.43C18.5 8.43 18.685 8.4 20 8.4C21.315 8.4 21.5 8.4 22 8.43C22.3174 8.43364 22.6319 8.49112 22.93 8.6C23.1572 8.68433 23.3611 8.82142 23.525 9C23.6889 9.15359 23.8169 9.34137 23.9 9.55C24.0111 9.85447 24.0686 10.1759 24.07 10.5C24.095 11 24.1 11.185 24.1 12.5C24.1 13.815 24.095 14 24.07 14.5ZM20 9.935C19.4929 9.93599 18.9975 10.0873 18.5763 10.3697C18.1552 10.6522 17.8272 11.0531 17.6338 11.5219C17.4404 11.9907 17.3904 12.5062 17.4899 13.0035C17.5894 13.5007 17.8341 13.9573 18.193 14.3155C18.552 14.6737 19.009 14.9175 19.5064 15.0161C20.0039 15.1146 20.5193 15.0636 20.9877 14.8693C21.4561 14.675 21.8564 14.3462 22.1381 13.9245C22.4197 13.5028 22.57 13.0071 22.57 12.5C22.5707 12.1626 22.5046 11.8283 22.3756 11.5165C22.2466 11.2047 22.0573 10.9214 21.8184 10.683C21.5796 10.4446 21.296 10.2558 20.9839 10.1275C20.6718 9.99909 20.3374 9.93368 20 9.935ZM20 14.165C19.6707 14.165 19.3488 14.0673 19.075 13.8844C18.8012 13.7014 18.5878 13.4414 18.4617 13.1372C18.3357 12.8329 18.3027 12.4982 18.367 12.1752C18.4312 11.8522 18.5898 11.5555 18.8227 11.3227C19.0555 11.0898 19.3522 10.9312 19.6752 10.867C19.9982 10.8027 20.3329 10.8357 20.6372 10.9617C20.9414 11.0878 21.2014 11.3012 21.3844 11.575C21.5673 11.8488 21.665 12.1707 21.665 12.5C21.665 12.7187 21.6219 12.9352 21.5383 13.1372C21.4546 13.3392 21.3319 13.5227 21.1773 13.6773C21.0227 13.8319 20.8392 13.9546 20.6372 14.0383C20.4352 14.1219 20.2187 14.165 20 14.165Z" fill="#4F4F4F"/>
<path d="M37.9205 17V10.4545H38.9261V17H37.9205ZM38.4318 9.36364C38.2358 9.36364 38.0668 9.29688 37.9247 9.16335C37.7855 9.02983 37.7159 8.86932 37.7159 8.68182C37.7159 8.49432 37.7855 8.33381 37.9247 8.20028C38.0668 8.06676 38.2358 8 38.4318 8C38.6278 8 38.7955 8.06676 38.9347 8.20028C39.0767 8.33381 39.1477 8.49432 39.1477 8.68182C39.1477 8.86932 39.0767 9.02983 38.9347 9.16335C38.7955 9.29688 38.6278 9.36364 38.4318 9.36364ZM42.6942 17.1534C42.2795 17.1534 41.9031 17.0753 41.565 16.919C41.2269 16.7599 40.9585 16.5312 40.7596 16.233C40.5607 15.9318 40.4613 15.5682 40.4613 15.142C40.4613 14.767 40.5352 14.4631 40.6829 14.2301C40.8306 13.9943 41.0281 13.8097 41.2752 13.6761C41.5224 13.5426 41.7951 13.4432 42.0934 13.3778C42.3945 13.3097 42.6971 13.2557 43.0011 13.2159C43.3988 13.1648 43.7212 13.1264 43.9684 13.1009C44.2184 13.0724 44.4002 13.0256 44.5138 12.9602C44.6303 12.8949 44.6886 12.7812 44.6886 12.6193V12.5852C44.6886 12.1648 44.5735 11.8381 44.3434 11.6051C44.1161 11.3722 43.771 11.2557 43.3079 11.2557C42.8278 11.2557 42.4513 11.3608 42.1786 11.571C41.9059 11.7812 41.7141 12.0057 41.6033 12.2443L40.6488 11.9034C40.8192 11.5057 41.0465 11.196 41.3306 10.9744C41.6175 10.75 41.93 10.5937 42.2681 10.5057C42.609 10.4148 42.9442 10.3693 43.2738 10.3693C43.484 10.3693 43.7255 10.3949 43.9982 10.446C44.2738 10.4943 44.5394 10.5952 44.7951 10.7486C45.0536 10.902 45.2681 11.1335 45.4386 11.4432C45.609 11.7528 45.6942 12.1676 45.6942 12.6875V17H44.6886V16.1136H44.6374C44.5692 16.2557 44.4556 16.4077 44.2965 16.5696C44.1374 16.7315 43.9258 16.8693 43.6616 16.983C43.3974 17.0966 43.0749 17.1534 42.6942 17.1534ZM42.8477 16.25C43.2454 16.25 43.5806 16.1719 43.8533 16.0156C44.1289 15.8594 44.3363 15.6577 44.4755 15.4105C44.6175 15.1634 44.6886 14.9034 44.6886 14.6307V13.7102C44.646 13.7614 44.5522 13.8082 44.4073 13.8509C44.2653 13.8906 44.1005 13.9261 43.913 13.9574C43.7283 13.9858 43.5479 14.0114 43.3718 14.0341C43.1985 14.054 43.0579 14.071 42.9499 14.0852C42.6886 14.1193 42.4442 14.1747 42.217 14.2514C41.9925 14.3253 41.8107 14.4375 41.6715 14.5881C41.5352 14.7358 41.467 14.9375 41.467 15.1932C41.467 15.5426 41.5962 15.8068 41.8548 15.9858C42.1161 16.1619 42.4471 16.25 42.8477 16.25ZM47.5298 17V10.4545H48.5014V11.4773H48.5866C48.723 11.1278 48.9432 10.8565 49.2472 10.6634C49.5511 10.4673 49.9162 10.3693 50.3423 10.3693C50.7741 10.3693 51.1335 10.4673 51.4205 10.6634C51.7102 10.8565 51.9361 11.1278 52.098 11.4773H52.1662C52.3338 11.1392 52.5852 10.8707 52.9205 10.6719C53.2557 10.4702 53.6577 10.3693 54.1264 10.3693C54.7116 10.3693 55.1903 10.5526 55.5625 10.919C55.9347 11.2827 56.1207 11.8494 56.1207 12.6193V17H55.1151V12.6193C55.1151 12.1364 54.983 11.7912 54.7188 11.5838C54.4545 11.3764 54.1435 11.2727 53.7855 11.2727C53.3253 11.2727 52.9688 11.4119 52.7159 11.6903C52.4631 11.9659 52.3366 12.3153 52.3366 12.7386V17H51.3139V12.517C51.3139 12.1449 51.1932 11.8452 50.9517 11.6179C50.7102 11.3878 50.3991 11.2727 50.0185 11.2727C49.7571 11.2727 49.5128 11.3423 49.2855 11.4815C49.0611 11.6207 48.8793 11.8139 48.7401 12.0611C48.6037 12.3054 48.5355 12.5881 48.5355 12.9091V17H47.5298ZM58.9652 8.27273V17H57.9595V8.27273H58.9652ZM60.8072 17V10.4545H61.8129V17H60.8072ZM61.3185 9.36364C61.1225 9.36364 60.9535 9.29688 60.8114 9.16335C60.6722 9.02983 60.6026 8.86932 60.6026 8.68182C60.6026 8.49432 60.6722 8.33381 60.8114 8.20028C60.9535 8.06676 61.1225 8 61.3185 8C61.5146 8 61.6822 8.06676 61.8214 8.20028C61.9634 8.33381 62.0344 8.49432 62.0344 8.68182C62.0344 8.86932 61.9634 9.02983 61.8214 9.16335C61.6822 9.29688 61.5146 9.36364 61.3185 9.36364ZM66.2969 19.5909C65.8111 19.5909 65.3935 19.5284 65.044 19.4034C64.6946 19.2812 64.4034 19.1193 64.1705 18.9176C63.9403 18.7188 63.7571 18.5057 63.6207 18.2784L64.4219 17.7159C64.5128 17.8352 64.6278 17.9716 64.767 18.125C64.9063 18.2812 65.0966 18.4162 65.3381 18.5298C65.5824 18.6463 65.902 18.7045 66.2969 18.7045C66.8253 18.7045 67.2614 18.5767 67.6051 18.321C67.9489 18.0653 68.1207 17.6648 68.1207 17.1193V15.7898H68.0355C67.9616 15.9091 67.8565 16.0568 67.7202 16.233C67.5866 16.4062 67.3935 16.5611 67.1406 16.6974C66.8906 16.831 66.5526 16.8977 66.1264 16.8977C65.598 16.8977 65.1236 16.7727 64.7031 16.5227C64.2855 16.2727 63.9545 15.9091 63.7102 15.4318C63.4688 14.9545 63.348 14.375 63.348 13.6932C63.348 13.0227 63.4659 12.4389 63.7017 11.9418C63.9375 11.4418 64.2656 11.0554 64.6861 10.7827C65.1065 10.5071 65.5923 10.3693 66.1435 10.3693C66.5696 10.3693 66.9077 10.4403 67.1577 10.5824C67.4105 10.7216 67.6037 10.8807 67.7372 11.0597C67.8736 11.2358 67.9787 11.3807 68.0526 11.4943H68.1548V10.4545H69.1264V17.1875C69.1264 17.75 68.9986 18.2074 68.7429 18.5597C68.4901 18.9148 68.1491 19.1747 67.7202 19.3395C67.294 19.5071 66.8196 19.5909 66.2969 19.5909ZM66.2628 15.9943C66.6662 15.9943 67.0071 15.902 67.2855 15.7173C67.5639 15.5327 67.7756 15.267 67.9205 14.9205C68.0653 14.5739 68.1378 14.1591 68.1378 13.6761C68.1378 13.2045 68.0668 12.7884 67.9247 12.4276C67.7827 12.0668 67.5724 11.7841 67.294 11.5795C67.0156 11.375 66.6719 11.2727 66.2628 11.2727C65.8366 11.2727 65.4815 11.3807 65.1974 11.5966C64.9162 11.8125 64.7045 12.1023 64.5625 12.4659C64.4233 12.8295 64.3537 13.233 64.3537 13.6761C64.3537 14.1307 64.4247 14.5327 64.5668 14.8821C64.7116 15.2287 64.9247 15.5014 65.206 15.7003C65.4901 15.8963 65.8423 15.9943 66.2628 15.9943ZM71.973 13.0625V17H70.9673V8.27273H71.973V11.4773H72.0582C72.2116 11.1392 72.4418 10.8707 72.7486 10.6719C73.0582 10.4702 73.4702 10.3693 73.9844 10.3693C74.4304 10.3693 74.821 10.4588 75.1562 10.6378C75.4915 10.8139 75.7514 11.0852 75.9361 11.4517C76.1236 11.8153 76.2173 12.2784 76.2173 12.8409V17H75.2116V12.9091C75.2116 12.3892 75.0767 11.9872 74.8068 11.7031C74.5398 11.4162 74.169 11.2727 73.6946 11.2727C73.3651 11.2727 73.0696 11.3423 72.8082 11.4815C72.5497 11.6207 72.3452 11.8239 72.1946 12.0909C72.0469 12.358 71.973 12.6818 71.973 13.0625ZM80.9038 10.4545V11.3068H77.5117V10.4545H80.9038ZM78.5004 8.88636H79.506V15.125C79.506 15.4091 79.5472 15.6222 79.6296 15.7642C79.7148 15.9034 79.8228 15.9972 79.9535 16.0455C80.087 16.0909 80.2276 16.1136 80.3754 16.1136C80.4862 16.1136 80.5771 16.108 80.6481 16.0966C80.7191 16.0824 80.7759 16.071 80.8185 16.0625L81.0231 16.9659C80.9549 16.9915 80.8597 17.017 80.7376 17.0426C80.6154 17.071 80.4606 17.0852 80.2731 17.0852C79.989 17.0852 79.7106 17.0241 79.4379 16.902C79.168 16.7798 78.9435 16.5938 78.7646 16.3438C78.5884 16.0938 78.5004 15.7784 78.5004 15.3977V8.88636ZM83.1495 17.0682C82.9393 17.0682 82.7589 16.9929 82.6083 16.8423C82.4577 16.6918 82.3825 16.5114 82.3825 16.3011C82.3825 16.0909 82.4577 15.9105 82.6083 15.7599C82.7589 15.6094 82.9393 15.5341 83.1495 15.5341C83.3597 15.5341 83.5401 15.6094 83.6907 15.7599C83.8413 15.9105 83.9165 16.0909 83.9165 16.3011C83.9165 16.4403 83.881 16.5682 83.81 16.6847C83.7418 16.8011 83.6495 16.8949 83.533 16.9659C83.4194 17.0341 83.2915 17.0682 83.1495 17.0682ZM90.3576 11.9205L89.4542 12.1761C89.3974 12.0256 89.3136 11.8793 89.2028 11.7372C89.0948 11.5923 88.9471 11.473 88.7596 11.3793C88.5721 11.2855 88.332 11.2386 88.0394 11.2386C87.6388 11.2386 87.305 11.331 87.038 11.5156C86.7738 11.6974 86.6417 11.929 86.6417 12.2102C86.6417 12.4602 86.7326 12.6577 86.9144 12.8026C87.0962 12.9474 87.3803 13.0682 87.7667 13.1648L88.7383 13.4034C89.3235 13.5455 89.7596 13.7628 90.0465 14.0554C90.3335 14.3452 90.4769 14.7187 90.4769 15.1761C90.4769 15.5511 90.369 15.8864 90.1531 16.1818C89.94 16.4773 89.6417 16.7102 89.2582 16.8807C88.8746 17.0511 88.4286 17.1364 87.9201 17.1364C87.2525 17.1364 86.6999 16.9915 86.2624 16.7017C85.8249 16.4119 85.5479 15.9886 85.4315 15.4318L86.386 15.1932C86.4769 15.5455 86.6488 15.8097 86.9016 15.9858C87.1573 16.1619 87.4911 16.25 87.9031 16.25C88.3718 16.25 88.744 16.1506 89.0195 15.9517C89.2979 15.75 89.4371 15.5085 89.4371 15.2273C89.4371 15 89.3576 14.8097 89.1985 14.6562C89.0394 14.5 88.7951 14.3835 88.4656 14.3068L87.3746 14.0511C86.7752 13.9091 86.3349 13.6889 86.0536 13.3906C85.7752 13.0895 85.636 12.7131 85.636 12.2614C85.636 11.892 85.7397 11.5653 85.9471 11.2812C86.1573 10.9972 86.4428 10.7741 86.8036 10.6122C87.1673 10.4503 87.5792 10.3693 88.0394 10.3693C88.6871 10.3693 89.1957 10.5114 89.565 10.7955C89.9371 11.0795 90.2013 11.4545 90.3576 11.9205ZM94.8374 10.4545V11.3068H91.4453V10.4545H94.8374ZM92.4339 8.88636H93.4396V15.125C93.4396 15.4091 93.4808 15.6222 93.5632 15.7642C93.6484 15.9034 93.7564 15.9972 93.8871 16.0455C94.0206 16.0909 94.1612 16.1136 94.3089 16.1136C94.4197 16.1136 94.5107 16.108 94.5817 16.0966C94.6527 16.0824 94.7095 16.071 94.7521 16.0625L94.9567 16.9659C94.8885 16.9915 94.7933 17.017 94.6712 17.0426C94.549 17.071 94.3942 17.0852 94.2067 17.0852C93.9226 17.0852 93.6442 17.0241 93.3714 16.902C93.1016 16.7798 92.8771 16.5938 92.6982 16.3438C92.522 16.0938 92.4339 15.7784 92.4339 15.3977V8.88636ZM98.9389 17.1364C98.348 17.1364 97.8295 16.9957 97.3835 16.7145C96.9403 16.4332 96.5938 16.0398 96.3438 15.5341C96.0966 15.0284 95.973 14.4375 95.973 13.7614C95.973 13.0795 96.0966 12.4844 96.3438 11.9759C96.5938 11.4673 96.9403 11.0724 97.3835 10.7912C97.8295 10.5099 98.348 10.3693 98.9389 10.3693C99.5298 10.3693 100.047 10.5099 100.49 10.7912C100.936 11.0724 101.283 11.4673 101.53 11.9759C101.78 12.4844 101.905 13.0795 101.905 13.7614C101.905 14.4375 101.78 15.0284 101.53 15.5341C101.283 16.0398 100.936 16.4332 100.49 16.7145C100.047 16.9957 99.5298 17.1364 98.9389 17.1364ZM98.9389 16.233C99.3878 16.233 99.7571 16.1179 100.047 15.8878C100.337 15.6577 100.551 15.3551 100.69 14.9801C100.83 14.6051 100.899 14.1989 100.899 13.7614C100.899 13.3239 100.83 12.9162 100.69 12.5384C100.551 12.1605 100.337 11.8551 100.047 11.6222C99.7571 11.3892 99.3878 11.2727 98.9389 11.2727C98.4901 11.2727 98.1207 11.3892 97.831 11.6222C97.5412 11.8551 97.3267 12.1605 97.1875 12.5384C97.0483 12.9162 96.9787 13.3239 96.9787 13.7614C96.9787 14.1989 97.0483 14.6051 97.1875 14.9801C97.3267 15.3551 97.5412 15.6577 97.831 15.8878C98.1207 16.1179 98.4901 16.233 98.9389 16.233ZM103.44 17V10.4545H104.412V11.4432H104.48C104.599 11.1193 104.815 10.8565 105.127 10.6548C105.44 10.4531 105.792 10.3523 106.184 10.3523C106.258 10.3523 106.35 10.3537 106.461 10.3565C106.572 10.3594 106.656 10.3636 106.713 10.3693V11.392C106.679 11.3835 106.6 11.3707 106.478 11.3537C106.359 11.3338 106.233 11.3239 106.099 11.3239C105.781 11.3239 105.497 11.3906 105.247 11.5241C105 11.6548 104.804 11.8366 104.659 12.0696C104.517 12.2997 104.446 12.5625 104.446 12.858V17H103.44ZM110.45 17.1364C109.819 17.1364 109.275 16.9972 108.818 16.7188C108.363 16.4375 108.012 16.0455 107.765 15.5426C107.521 15.0369 107.399 14.4489 107.399 13.7784C107.399 13.108 107.521 12.517 107.765 12.0057C108.012 11.4915 108.356 11.0909 108.797 10.804C109.24 10.5142 109.757 10.3693 110.348 10.3693C110.689 10.3693 111.025 10.4261 111.358 10.5398C111.69 10.6534 111.993 10.8381 112.265 11.0938C112.538 11.3466 112.755 11.6818 112.917 12.0994C113.079 12.517 113.16 13.0312 113.16 13.642V14.0682H108.115V13.1989H112.137C112.137 12.8295 112.064 12.5 111.916 12.2102C111.771 11.9205 111.564 11.6918 111.294 11.5241C111.027 11.3565 110.711 11.2727 110.348 11.2727C109.947 11.2727 109.6 11.3722 109.308 11.571C109.018 11.767 108.795 12.0227 108.639 12.3381C108.483 12.6534 108.404 12.9915 108.404 13.3523V13.9318C108.404 14.4261 108.49 14.8452 108.66 15.1889C108.833 15.5298 109.074 15.7898 109.38 15.9688C109.687 16.1449 110.044 16.233 110.45 16.233C110.714 16.233 110.953 16.196 111.166 16.1222C111.382 16.0455 111.568 15.9318 111.724 15.7812C111.88 15.6278 112.001 15.4375 112.086 15.2102L113.058 15.483C112.956 15.8125 112.784 16.1023 112.542 16.3523C112.301 16.5994 112.002 16.7926 111.647 16.9318C111.292 17.0682 110.893 17.1364 110.45 17.1364Z" fill="#4F4F4F"/>
<rect x="0.5" y="0.5" width="128" height="24" rx="2.5" stroke="#4F4F4F"/>
</svg>
