<svg width="12" height="11" viewBox="0 0 12 11" fill="none" xmlns="http://www.w3.org/2000/svg">
<path d="M10.906 1.55937C10.2698 0.960195 9.42648 0.594495 8.52837 0.528325C7.63026 0.462155 6.73657 0.699878 6.00872 1.19855C5.24512 0.665021 4.29468 0.423092 3.3488 0.521485C2.40292 0.619878 1.53185 1.05128 0.911012 1.72883C0.290174 2.40637 -0.0343188 3.27973 0.00287797 4.17302C0.0400747 5.06631 0.436198 5.91319 1.11148 6.54311L4.83843 10.0498C5.15052 10.3383 5.57085 10.5 6.00872 10.5C6.4466 10.5 6.86693 10.3383 7.17902 10.0498L10.906 6.54311C11.6067 5.88083 12 4.985 12 4.05124C12 3.11748 11.6067 2.22165 10.906 1.55937ZM10.0598 5.7651L6.33281 9.26612C6.2904 9.30635 6.23992 9.33828 6.18429 9.36007C6.12867 9.38187 6.06899 9.39309 6.00872 9.39309C5.94845 9.39309 5.88878 9.38187 5.83316 9.36007C5.77753 9.33828 5.72705 9.30635 5.68464 9.26612L1.95769 5.74819C1.48703 5.29624 1.22347 4.68913 1.22347 4.05687C1.22347 3.42462 1.48703 2.81751 1.95769 2.36556C2.43731 1.92074 3.08416 1.67131 3.75815 1.67131C4.43214 1.67131 5.07899 1.92074 5.55861 2.36556C5.6144 2.4184 5.68078 2.46034 5.75391 2.48896C5.82705 2.51759 5.90549 2.53232 5.98472 2.53232C6.06395 2.53232 6.14239 2.51759 6.21552 2.48896C6.28866 2.46034 6.35503 2.4184 6.41083 2.36556C6.89044 1.92074 7.5373 1.67131 8.21128 1.67131C8.88527 1.67131 9.53213 1.92074 10.0117 2.36556C10.4889 2.81159 10.7611 3.41541 10.7701 4.04768C10.779 4.67994 10.5241 5.29037 10.0598 5.74819V5.7651Z" fill="#FF4C62"/>
</svg>
