<svg width="12" height="13" viewBox="0 0 12 13" fill="none" xmlns="http://www.w3.org/2000/svg">
<path d="M1.0001 7.00579L8.5901 7.0058L5.2901 10.2958C5.1018 10.4841 4.99601 10.7395 4.99601 11.0058C4.99601 11.2721 5.1018 11.5275 5.2901 11.7158C5.47841 11.9041 5.7338 12.0099 6.0001 12.0099C6.26641 12.0099 6.5218 11.9041 6.7101 11.7158L11.7101 6.7158C11.8011 6.62069 11.8725 6.50855 11.9201 6.3858C12.0201 6.14233 12.0201 5.86926 11.9201 5.6258C11.8725 5.50304 11.8011 5.3909 11.7101 5.2958L6.7101 0.295797C6.61714 0.202069 6.50654 0.127673 6.38468 0.0769038C6.26282 0.0261349 6.13212 -2.41991e-06 6.0001 -2.43145e-06C5.86809 -2.44299e-06 5.73739 0.0261349 5.61553 0.0769037C5.49367 0.127673 5.38307 0.202069 5.2901 0.295797C5.19638 0.38876 5.12198 0.499359 5.07121 0.621219C5.02044 0.743079 4.99431 0.873784 4.99431 1.0058C4.99431 1.13781 5.02044 1.26851 5.07121 1.39037C5.12198 1.51223 5.19638 1.62283 5.2901 1.71579L8.5901 5.0058L1.0001 5.00579C0.734888 5.00579 0.480533 5.11115 0.292997 5.29869C0.105461 5.48622 0.000104499 5.74058 0.000104475 6.00579C0.000104452 6.27101 0.105461 6.52537 0.292997 6.7129C0.480533 6.90044 0.734888 7.00579 1.0001 7.00579Z" fill="#4F4F4F"/>
</svg>
