<svg width="22" height="15" viewBox="0 0 22 15" fill="none" xmlns="http://www.w3.org/2000/svg">
<path d="M11.2734 14.0078C11.9974 14.0078 12.6927 13.9453 13.3594 13.8203C14.026 13.6953 14.6536 13.5234 15.2422 13.3047L13.1953 11.2578C12.9089 11.4089 12.6016 11.5234 12.2734 11.6016C11.9505 11.6797 11.6172 11.7188 11.2734 11.7188C10.6641 11.7188 10.0938 11.6068 9.5625 11.3828C9.03646 11.1536 8.57292 10.8385 8.17188 10.4375C7.77604 10.0312 7.46354 9.56771 7.23438 9.04688C7.01042 8.52083 6.89844 7.96094 6.89844 7.36719C6.89844 7.01823 6.9375 6.67969 7.01562 6.35156C7.09375 6.01823 7.20573 5.70573 7.35156 5.41406L4.67969 2.72656C4.0651 3.11198 3.51042 3.52604 3.01562 3.96875C2.52604 4.40625 2.10677 4.84115 1.75781 5.27344C1.40885 5.70573 1.14062 6.10417 0.953125 6.46875C0.770833 6.83333 0.679688 7.13281 0.679688 7.36719C0.679688 7.63281 0.796875 7.97917 1.03125 8.40625C1.26562 8.82812 1.60417 9.28906 2.04688 9.78906C2.49479 10.2891 3.03125 10.7865 3.65625 11.2812C4.28646 11.776 4.99479 12.2292 5.78125 12.6406C6.56771 13.0521 7.42188 13.3828 8.34375 13.6328C9.26562 13.8828 10.2422 14.0078 11.2734 14.0078ZM18.0859 11.875C18.8464 11.375 19.5078 10.8359 20.0703 10.2578C20.638 9.67448 21.0781 9.125 21.3906 8.60938C21.7031 8.09375 21.8594 7.67969 21.8594 7.36719C21.8594 7.10156 21.7422 6.75781 21.5078 6.33594C21.2786 5.90885 20.9427 5.44531 20.5 4.94531C20.0625 4.44531 19.5312 3.94792 18.9062 3.45312C18.2812 2.95833 17.5755 2.50521 16.7891 2.09375C16.0026 1.68229 15.1458 1.35156 14.2188 1.10156C13.2969 0.851562 12.3151 0.726562 11.2734 0.726562C10.6068 0.726562 9.96354 0.78125 9.34375 0.890625C8.72396 0.994792 8.13021 1.14062 7.5625 1.32812L9.59375 3.35938C9.84896 3.25 10.1172 3.16667 10.3984 3.10938C10.6797 3.04688 10.9714 3.01562 11.2734 3.01562C11.8776 3.01562 12.4427 3.1276 12.9688 3.35156C13.5 3.57031 13.9635 3.88021 14.3594 4.28125C14.7604 4.67708 15.0729 5.13802 15.2969 5.66406C15.526 6.1901 15.6406 6.75781 15.6406 7.36719C15.6406 7.66406 15.6094 7.95312 15.5469 8.23438C15.4844 8.51562 15.3932 8.78125 15.2734 9.03125L18.0859 11.875ZM8.78125 7.1875C8.78125 7.64583 8.89323 8.0625 9.11719 8.4375C9.34635 8.8125 9.64844 9.11198 10.0234 9.33594C10.4036 9.5599 10.8229 9.67188 11.2812 9.67188C11.3333 9.67188 11.3854 9.67188 11.4375 9.67188C11.4896 9.66667 11.5443 9.66146 11.6016 9.65625L8.79688 6.85156C8.79167 6.90885 8.78646 6.96615 8.78125 7.02344C8.78125 7.08073 8.78125 7.13542 8.78125 7.1875ZM13.7578 7.20312C13.7578 6.75 13.6458 6.33594 13.4219 5.96094C13.2031 5.58073 12.9062 5.28125 12.5312 5.0625C12.1562 4.83854 11.737 4.72656 11.2734 4.72656C11.2214 4.72656 11.1693 4.72917 11.1172 4.73438C11.0703 4.73438 11.0234 4.73698 10.9766 4.74219L13.7422 7.50781C13.7474 7.46094 13.75 7.41146 13.75 7.35938C13.7552 7.30729 13.7578 7.25521 13.7578 7.20312ZM17.3516 14.1328C17.4714 14.2526 17.612 14.3151 17.7734 14.3203C17.9401 14.3255 18.0833 14.263 18.2031 14.1328C18.3333 14.0026 18.3958 13.8568 18.3906 13.6953C18.3854 13.5391 18.3229 13.401 18.2031 13.2812L5.14062 0.226562C5.02604 0.111979 4.88281 0.0546875 4.71094 0.0546875C4.54427 0.0494792 4.40104 0.106771 4.28125 0.226562C4.16667 0.341146 4.10938 0.484375 4.10938 0.65625C4.10938 0.822917 4.16667 0.963542 4.28125 1.07812L17.3516 14.1328Z" fill="black"/>
</svg>
