<svg width="115" height="49" viewBox="0 0 115 49" fill="none" xmlns="http://www.w3.org/2000/svg">
<path fill-rule="evenodd" clip-rule="evenodd" d="M78 32H86.099L89.579 21.934L93.196 18.849L96.046 27.952C96.927 30.765 97.834 32 99.813 32H106.013L99.617 14.137L115 0H105.065L95.727 10.066C94.64 11.238 93.539 12.391 92.436 13.769H92.342L97.004 0H88.906L78 32ZM77.31 0.365L84.44 0.366L82.754 5.544C82.224 7.171 80.878 7.95 77.912 7.95L59.992 7.948L61.679 2.77C62.209 1.142 63.554 0.364 66.52 0.364L77.31 0.365ZM62.36 12.253L80.281 12.255L78.594 17.433C78.064 19.061 76.719 19.839 73.752 19.839C68.602 19.839 60.982 19.838 55.832 19.836L57.519 14.659C58.049 13.031 59.395 12.253 62.361 12.253H62.36ZM75.918 24.143L57.998 24.142C55.031 24.142 53.686 24.92 53.156 26.547L51.469 31.726L69.389 31.728C72.355 31.728 73.701 30.949 74.231 29.322L75.918 24.144V24.143ZM40.782 7.707L45.188 7.709C48.941 7.71 48.084 12.319 46.184 16.811C44.511 20.77 41.544 24.263 38.006 24.263L30.662 24.262C27.733 24.262 26.382 25.056 25.813 26.715L24 32L29.385 32.001L34.649 31.958C39.317 31.92 43.139 31.588 47.607 27.639C52.33 23.468 57.837 12.631 56.894 6.362C56.154 1.45 53.47 0.002 46.97 0.001L35.124 0L28.227 19.847L32.609 19.852C35.218 19.855 36.526 19.888 37.914 16.217L40.782 7.707ZM20.206 7.735H16.946C10.414 7.739 4.816 24.265 12.54 24.263L17.502 24.262C20.364 24.262 22.488 25.306 21.548 28.122L20.251 31.999L14.99 32L10.709 31.957C5.232 31.902 1.699 29.205 0.426 25.109C-0.951 20.678 0.993 11.434 6.636 5.513C9.907 2.077 14.442 0.003 20.257 0.002L31 0L29.32 4.843C28.236 7.973 26.02 7.739 24.754 7.739L20.206 7.735Z" fill="#1AB248"/>
<path d="M7.617 48H6.141V40.664H2.385V48H0.908001V39.469H7.618V48H7.617ZM16.579 43.957C16.579 44.793 16.434 45.527 16.145 46.16C15.856 46.79 15.442 47.273 14.903 47.613C14.368 47.949 13.751 48.117 13.051 48.117C12.36 48.117 11.743 47.949 11.2 47.613C10.66 47.273 10.243 46.791 9.946 46.166C9.653 45.541 9.505 44.82 9.501 44.004V43.524C9.501 42.691 9.647 41.957 9.941 41.32C10.237 40.684 10.653 40.197 11.188 39.861C11.728 39.521 12.344 39.351 13.04 39.351C13.735 39.351 14.35 39.52 14.885 39.856C15.425 40.187 15.841 40.668 16.133 41.296C16.426 41.922 16.575 42.65 16.579 43.482V43.957ZM15.096 43.512C15.096 42.566 14.916 41.842 14.557 41.338C14.202 40.834 13.696 40.582 13.04 40.582C12.4 40.582 11.897 40.834 11.534 41.338C11.174 41.838 10.991 42.547 10.983 43.465V43.957C10.983 44.895 11.165 45.619 11.528 46.131C11.895 46.643 12.403 46.898 13.051 46.898C13.708 46.898 14.211 46.648 14.563 46.148C14.919 45.648 15.096 44.918 15.096 43.957V43.512ZM24.926 45.222C24.839 46.132 24.503 46.844 23.917 47.355C23.331 47.863 22.552 48.117 21.579 48.117C20.899 48.117 20.3 47.957 19.78 47.637C19.257 47.3032 18.8419 46.8249 18.585 46.26C18.304 45.666 18.157 44.977 18.145 44.191V43.394C18.145 42.59 18.288 41.881 18.573 41.268C18.859 40.654 19.267 40.182 19.798 39.85C20.333 39.518 20.951 39.352 21.65 39.352C22.591 39.352 23.349 39.607 23.923 40.119C24.497 40.631 24.831 41.353 24.925 42.287H23.448C23.378 41.674 23.198 41.232 22.91 40.963C22.624 40.69 22.204 40.553 21.65 40.553C21.005 40.553 20.51 40.789 20.161 41.262C19.818 41.73 19.641 42.42 19.634 43.33V44.086C19.634 45.008 19.798 45.711 20.126 46.196C20.458 46.68 20.943 46.922 21.579 46.922C22.161 46.922 22.599 46.791 22.892 46.529C23.185 46.268 23.37 45.832 23.448 45.223H24.925L24.926 45.222ZM28.139 42.732H29.885C30.51 42.732 31.055 42.84 31.519 43.055C31.984 43.27 32.338 43.575 32.58 43.969C32.822 44.363 32.943 44.82 32.943 45.339C32.943 46.137 32.672 46.777 32.129 47.262C31.589 47.746 30.853 47.992 29.919 48H26.656V39.469H28.139V42.732ZM35.264 48H33.787V39.469H35.264V48ZM28.139 43.922V46.816H29.879C30.379 46.816 30.767 46.682 31.045 46.412C31.326 46.139 31.467 45.777 31.467 45.328C31.467 44.898 31.33 44.558 31.057 44.308C30.783 44.058 30.404 43.93 29.92 43.922H28.139ZM44.255 39.469V48H42.778V40.664H40.165L40.012 43.963C39.954 44.994 39.827 45.795 39.632 46.365C39.44 46.932 39.161 47.345 38.794 47.607C38.426 47.869 37.934 48 37.317 48H36.942V46.816L37.176 46.799C37.516 46.768 37.778 46.649 37.961 46.441C38.149 46.234 38.29 45.921 38.383 45.504C38.481 45.082 38.549 44.463 38.588 43.647L38.752 39.469H44.254H44.255ZM53.21 43.957C53.21 44.793 53.066 45.527 52.777 46.16C52.487 46.79 52.073 47.273 51.534 47.613C50.999 47.949 50.382 48.117 49.683 48.117C48.991 48.117 48.374 47.949 47.831 47.613C47.292 47.273 46.874 46.791 46.577 46.166C46.284 45.541 46.136 44.82 46.132 44.004V43.524C46.132 42.691 46.279 41.957 46.572 41.32C46.868 40.684 47.284 40.197 47.819 39.861C48.359 39.521 48.976 39.351 49.671 39.351C50.366 39.351 50.981 39.52 51.517 39.856C52.056 40.187 52.472 40.668 52.765 41.296C53.058 41.922 53.206 42.65 53.21 43.482V43.957ZM51.728 43.512C51.728 42.566 51.548 41.842 51.188 41.338C50.833 40.834 50.328 40.582 49.671 40.582C49.031 40.582 48.529 40.834 48.165 41.338C47.805 41.838 47.622 42.547 47.615 43.465V43.957C47.615 44.895 47.796 45.619 48.159 46.131C48.527 46.643 49.034 46.898 49.683 46.898C50.339 46.898 50.843 46.648 51.194 46.148C51.55 45.648 51.728 44.918 51.728 43.957V43.512ZM61.574 39.469V48H60.097V44.643C59.465 44.803 58.804 44.883 58.117 44.883C57.097 44.883 56.326 44.658 55.803 44.209C55.279 43.759 55.016 43.082 55.012 42.176V39.469H56.488V42.187C56.492 42.731 56.617 43.117 56.863 43.347C57.109 43.578 57.527 43.693 58.117 43.693C58.797 43.693 59.457 43.611 60.097 43.447V39.47H61.574V39.469ZM66.241 44.344H65.233V48H63.756V39.469H65.233V43.055H66.047L68.555 39.469H70.372L67.442 43.553L70.629 48H68.849L66.241 44.344ZM76.585 46.014H73.28L72.59 48H71.049L74.272 39.469H75.602L78.829 48H77.282L76.585 46.014ZM73.696 44.818H76.169L74.933 41.279L73.696 44.819V44.818Z" fill="#1AB248"/>
</svg>
