<svg width="10" height="10" viewBox="0 0 10 10" fill="none" xmlns="http://www.w3.org/2000/svg">
<path d="M5.00022 4.84003e-09C4.23326 -3.37385e-05 3.47658 0.17637 2.7887 0.515565C2.10083 0.85476 1.5002 1.34765 1.0333 1.95611C0.566388 2.56457 0.245714 3.27229 0.096082 4.02451C-0.0535505 4.77673 -0.0281306 5.55329 0.170375 6.29411C0.368881 7.03493 0.735152 7.72016 1.24085 8.29679C1.74655 8.87341 2.37812 9.32597 3.08671 9.61945C3.79529 9.91293 4.5619 10.0395 5.32721 9.98928C6.09252 9.93909 6.83603 9.71351 7.50022 9.33C7.55997 9.29874 7.61278 9.25572 7.65548 9.20352C7.69817 9.15133 7.72987 9.09103 7.74866 9.02627C7.76745 8.9615 7.77294 8.89361 7.76481 8.82667C7.75668 8.75972 7.73509 8.69512 7.70134 8.63673C7.66759 8.57835 7.62239 8.5274 7.56844 8.48694C7.51449 8.44648 7.45291 8.41736 7.38741 8.40131C7.32191 8.38527 7.25385 8.38264 7.18731 8.39359C7.12077 8.40453 7.05713 8.42882 7.00022 8.465C6.23769 8.90525 5.35119 9.08159 4.47823 8.96669C3.60526 8.85179 2.79459 8.45205 2.17195 7.82948C1.54931 7.20691 1.14949 6.39629 1.03448 5.52334C0.919483 4.65038 1.09573 3.76387 1.53589 3.00129C1.97606 2.2387 2.65554 1.64266 3.46897 1.3056C4.28239 0.968529 5.18431 0.909274 6.03484 1.13702C6.88538 1.36477 7.637 1.86679 8.17315 2.56523C8.7093 3.26367 9.00002 4.1195 9.00022 5V5.375C9.00022 5.60706 8.90803 5.82962 8.74394 5.99372C8.57984 6.15781 8.35728 6.25 8.12522 6.25C7.89316 6.25 7.6706 6.15781 7.5065 5.99372C7.34241 5.82962 7.25022 5.60706 7.25022 5.375V3.25C7.25022 3.11739 7.19754 2.99021 7.10377 2.89645C7.01 2.80268 6.88283 2.75 6.75022 2.75C6.63395 2.74741 6.52041 2.78544 6.42915 2.85754C6.33789 2.92963 6.27461 3.03128 6.25022 3.145C5.88268 2.89079 5.4471 2.75315 5.00022 2.75C4.6238 2.7455 4.25227 2.83551 3.91966 3.0118C3.58704 3.18808 3.30397 3.44501 3.09637 3.75903C2.88878 4.07306 2.76329 4.43416 2.7314 4.80925C2.69951 5.18434 2.76225 5.56144 2.91385 5.906C3.06546 6.25057 3.3011 6.55158 3.59918 6.78149C3.89727 7.01139 4.24827 7.16283 4.62005 7.22193C4.99182 7.28104 5.37249 7.24592 5.72717 7.11979C6.08186 6.99366 6.39923 6.78056 6.65022 6.5C6.88779 6.80766 7.21533 7.03364 7.58729 7.14651C7.95925 7.25938 8.35713 7.25354 8.72562 7.1298C9.0941 7.00605 9.41487 6.77056 9.6433 6.45606C9.87174 6.14156 9.9965 5.76369 10.0002 5.375V5C10.0002 4.34339 9.87089 3.69321 9.61962 3.08658C9.36834 2.47995 9.00005 1.92876 8.53575 1.46447C8.07146 1.00017 7.52026 0.631876 6.91364 0.380602C6.30701 0.129329 5.65683 4.84003e-09 5.00022 4.84003e-09ZM5.00022 6.25C4.75299 6.25 4.51132 6.17669 4.30576 6.03934C4.10019 5.90198 3.93998 5.70676 3.84537 5.47835C3.75076 5.24995 3.72601 4.99861 3.77424 4.75614C3.82247 4.51366 3.94152 4.29093 4.11634 4.11612C4.29115 3.9413 4.51388 3.82225 4.75636 3.77402C4.99883 3.72579 5.25017 3.75054 5.47857 3.84515C5.70698 3.93976 5.9022 4.09998 6.03956 4.30554C6.17691 4.5111 6.25022 4.75277 6.25022 5C6.25022 5.33152 6.11852 5.64946 5.8841 5.88388C5.64968 6.1183 5.33174 6.25 5.00022 6.25Z" fill="#4F4F4F"/>
</svg>
