<svg width="133" height="25" viewBox="0 0 133 25" fill="none" xmlns="http://www.w3.org/2000/svg">
<path d="M26.6689 16.4583H28.1279C28.5439 16.4583 28.7529 16.2503 28.6279 15.8443C28.314 15.2118 27.8988 14.6349 27.3989 14.1363C27.2315 13.9387 27.0245 13.7361 26.8394 13.5549L26.8394 13.5549C26.6442 13.3639 26.4734 13.1967 26.3989 13.0843C26.1789 12.8033 26.2419 12.6783 26.3989 12.4383C27.17 11.3898 27.8264 10.2617 28.3569 9.07327C28.4499 8.76127 28.3569 8.54227 27.9199 8.54227H26.4609C26.3242 8.53281 26.1881 8.56835 26.0735 8.64346C25.9588 8.71857 25.8719 8.82913 25.8259 8.95827C25.3765 10.0333 24.7728 11.0372 24.0339 11.9383C23.6899 12.2823 23.5449 12.3863 23.3569 12.3863C23.2629 12.3863 23.1279 12.2823 23.1279 11.9693V9.07327C23.1279 8.69827 23.0239 8.54227 22.7109 8.54227H20.4189C20.3254 8.53839 20.234 8.57109 20.1642 8.63345C20.0944 8.6958 20.0516 8.7829 20.0449 8.87627C20.0449 9.01263 20.1221 9.10878 20.2205 9.23142C20.3776 9.42716 20.5888 9.69038 20.6269 10.2923V12.4383C20.6269 12.9073 20.5449 12.9903 20.3569 12.9903C19.8669 12.9903 18.6589 11.1783 17.9509 9.09427C17.8039 8.70927 17.6689 8.54227 17.2939 8.54227H15.8359C15.4189 8.54227 15.3359 8.74027 15.3359 8.95927C15.7169 10.7274 16.5051 12.3823 17.6379 13.7923C18.1151 14.5573 18.7672 15.1981 19.5405 15.6618C20.3139 16.1255 21.1863 16.3988 22.0859 16.4593C23.0129 16.4593 23.1279 16.2513 23.1279 15.8963V14.5843C23.1279 14.1673 23.2109 14.0843 23.5129 14.0843C23.7319 14.0843 24.0969 14.1883 24.9609 15.0213C25.2571 15.3174 25.4795 15.565 25.6605 15.7665L25.6606 15.7665C26.0848 16.2387 26.2821 16.4583 26.6689 16.4583Z" fill="#4F4F4F"/>
<path d="M41.5843 17V10.4545H42.59V17H41.5843ZM42.0956 9.36364C41.8996 9.36364 41.7306 9.29688 41.5885 9.16335C41.4493 9.02983 41.3797 8.86932 41.3797 8.68182C41.3797 8.49432 41.4493 8.33381 41.5885 8.20028C41.7306 8.06676 41.8996 8 42.0956 8C42.2917 8 42.4593 8.06676 42.5985 8.20028C42.7405 8.33381 42.8115 8.49432 42.8115 8.68182C42.8115 8.86932 42.7405 9.02983 42.5985 9.16335C42.4593 9.29688 42.2917 9.36364 42.0956 9.36364ZM46.3581 17.1534C45.9433 17.1534 45.5669 17.0753 45.2288 16.919C44.8907 16.7599 44.6223 16.5312 44.4234 16.233C44.2245 15.9318 44.1251 15.5682 44.1251 15.142C44.1251 14.767 44.199 14.4631 44.3467 14.2301C44.4944 13.9943 44.6919 13.8097 44.939 13.6761C45.1862 13.5426 45.4589 13.4432 45.7572 13.3778C46.0583 13.3097 46.3609 13.2557 46.6649 13.2159C47.0626 13.1648 47.3851 13.1264 47.6322 13.1009C47.8822 13.0724 48.064 13.0256 48.1777 12.9602C48.2941 12.8949 48.3524 12.7812 48.3524 12.6193V12.5852C48.3524 12.1648 48.2373 11.8381 48.0072 11.6051C47.7799 11.3722 47.4348 11.2557 46.9717 11.2557C46.4916 11.2557 46.1152 11.3608 45.8424 11.571C45.5697 11.7812 45.378 12.0057 45.2672 12.2443L44.3126 11.9034C44.4831 11.5057 44.7103 11.196 44.9944 10.9744C45.2814 10.75 45.5939 10.5937 45.9319 10.5057C46.2728 10.4148 46.6081 10.3693 46.9376 10.3693C47.1478 10.3693 47.3893 10.3949 47.662 10.446C47.9376 10.4943 48.2032 10.5952 48.4589 10.7486C48.7174 10.902 48.9319 11.1335 49.1024 11.4432C49.2728 11.7528 49.3581 12.1676 49.3581 12.6875V17H48.3524V16.1136H48.3012C48.2331 16.2557 48.1194 16.4077 47.9603 16.5696C47.8012 16.7315 47.5896 16.8693 47.3254 16.983C47.0612 17.0966 46.7387 17.1534 46.3581 17.1534ZM46.5115 16.25C46.9092 16.25 47.2444 16.1719 47.5172 16.0156C47.7927 15.8594 48.0001 15.6577 48.1393 15.4105C48.2814 15.1634 48.3524 14.9034 48.3524 14.6307V13.7102C48.3098 13.7614 48.216 13.8082 48.0711 13.8509C47.9291 13.8906 47.7643 13.9261 47.5768 13.9574C47.3922 13.9858 47.2118 14.0114 47.0356 14.0341C46.8623 14.054 46.7217 14.071 46.6137 14.0852C46.3524 14.1193 46.1081 14.1747 45.8808 14.2514C45.6564 14.3253 45.4745 14.4375 45.3353 14.5881C45.199 14.7358 45.1308 14.9375 45.1308 15.1932C45.1308 15.5426 45.2601 15.8068 45.5186 15.9858C45.7799 16.1619 46.1109 16.25 46.5115 16.25ZM51.1936 17V10.4545H52.1652V11.4773H52.2505C52.3868 11.1278 52.607 10.8565 52.911 10.6634C53.215 10.4673 53.58 10.3693 54.0061 10.3693C54.438 10.3693 54.7973 10.4673 55.0843 10.6634C55.374 10.8565 55.5999 11.1278 55.7618 11.4773H55.83C55.9976 11.1392 56.249 10.8707 56.5843 10.6719C56.9195 10.4702 57.3215 10.3693 57.7902 10.3693C58.3755 10.3693 58.8542 10.5526 59.2263 10.919C59.5985 11.2827 59.7846 11.8494 59.7846 12.6193V17H58.7789V12.6193C58.7789 12.1364 58.6468 11.7912 58.3826 11.5838C58.1184 11.3764 57.8073 11.2727 57.4493 11.2727C56.9891 11.2727 56.6326 11.4119 56.3797 11.6903C56.1269 11.9659 56.0005 12.3153 56.0005 12.7386V17H54.9777V12.517C54.9777 12.1449 54.857 11.8452 54.6155 11.6179C54.374 11.3878 54.063 11.2727 53.6823 11.2727C53.4209 11.2727 53.1766 11.3423 52.9493 11.4815C52.7249 11.6207 52.5431 11.8139 52.4039 12.0611C52.2675 12.3054 52.1993 12.5881 52.1993 12.9091V17H51.1936ZM62.629 8.27273V17H61.6233V8.27273H62.629ZM64.471 17V10.4545H65.4767V17H64.471ZM64.9824 9.36364C64.7863 9.36364 64.6173 9.29688 64.4753 9.16335C64.336 9.02983 64.2664 8.86932 64.2664 8.68182C64.2664 8.49432 64.336 8.33381 64.4753 8.20028C64.6173 8.06676 64.7863 8 64.9824 8C65.1784 8 65.346 8.06676 65.4852 8.20028C65.6272 8.33381 65.6983 8.49432 65.6983 8.68182C65.6983 8.86932 65.6272 9.02983 65.4852 9.16335C65.346 9.29688 65.1784 9.36364 64.9824 9.36364ZM69.9607 19.5909C69.4749 19.5909 69.0573 19.5284 68.7079 19.4034C68.3584 19.2812 68.0672 19.1193 67.8343 18.9176C67.6042 18.7188 67.4209 18.5057 67.2846 18.2784L68.0857 17.7159C68.1766 17.8352 68.2917 17.9716 68.4309 18.125C68.5701 18.2812 68.7604 18.4162 69.0019 18.5298C69.2462 18.6463 69.5658 18.7045 69.9607 18.7045C70.4891 18.7045 70.9252 18.5767 71.2689 18.321C71.6127 18.0653 71.7846 17.6648 71.7846 17.1193V15.7898H71.6993C71.6255 15.9091 71.5204 16.0568 71.384 16.233C71.2505 16.4062 71.0573 16.5611 70.8044 16.6974C70.5544 16.831 70.2164 16.8977 69.7902 16.8977C69.2618 16.8977 68.7874 16.7727 68.3669 16.5227C67.9493 16.2727 67.6184 15.9091 67.374 15.4318C67.1326 14.9545 67.0118 14.375 67.0118 13.6932C67.0118 13.0227 67.1297 12.4389 67.3655 11.9418C67.6013 11.4418 67.9294 11.0554 68.3499 10.7827C68.7704 10.5071 69.2561 10.3693 69.8073 10.3693C70.2334 10.3693 70.5715 10.4403 70.8215 10.5824C71.0743 10.7216 71.2675 10.8807 71.401 11.0597C71.5374 11.2358 71.6425 11.3807 71.7164 11.4943H71.8186V10.4545H72.7902V17.1875C72.7902 17.75 72.6624 18.2074 72.4067 18.5597C72.1539 18.9148 71.813 19.1747 71.384 19.3395C70.9579 19.5071 70.4834 19.5909 69.9607 19.5909ZM69.9266 15.9943C70.33 15.9943 70.6709 15.902 70.9493 15.7173C71.2277 15.5327 71.4394 15.267 71.5843 14.9205C71.7292 14.5739 71.8016 14.1591 71.8016 13.6761C71.8016 13.2045 71.7306 12.7884 71.5885 12.4276C71.4465 12.0668 71.2363 11.7841 70.9579 11.5795C70.6794 11.375 70.3357 11.2727 69.9266 11.2727C69.5005 11.2727 69.1454 11.3807 68.8613 11.5966C68.58 11.8125 68.3684 12.1023 68.2263 12.4659C68.0871 12.8295 68.0175 13.233 68.0175 13.6761C68.0175 14.1307 68.0885 14.5327 68.2306 14.8821C68.3755 15.2287 68.5885 15.5014 68.8698 15.7003C69.1539 15.8963 69.5061 15.9943 69.9266 15.9943ZM75.6368 13.0625V17H74.6311V8.27273H75.6368V11.4773H75.7221C75.8755 11.1392 76.1056 10.8707 76.4124 10.6719C76.7221 10.4702 77.134 10.3693 77.6482 10.3693C78.0942 10.3693 78.4848 10.4588 78.8201 10.6378C79.1553 10.8139 79.4152 11.0852 79.5999 11.4517C79.7874 11.8153 79.8811 12.2784 79.8811 12.8409V17H78.8755V12.9091C78.8755 12.3892 78.7405 11.9872 78.4706 11.7031C78.2036 11.4162 77.8329 11.2727 77.3584 11.2727C77.0289 11.2727 76.7334 11.3423 76.4721 11.4815C76.2135 11.6207 76.009 11.8239 75.8584 12.0909C75.7107 12.358 75.6368 12.6818 75.6368 13.0625ZM84.5676 10.4545V11.3068H81.1755V10.4545H84.5676ZM82.1642 8.88636H83.1699V15.125C83.1699 15.4091 83.211 15.6222 83.2934 15.7642C83.3787 15.9034 83.4866 15.9972 83.6173 16.0455C83.7508 16.0909 83.8914 16.1136 84.0392 16.1136C84.15 16.1136 84.2409 16.108 84.3119 16.0966C84.3829 16.0824 84.4397 16.071 84.4824 16.0625L84.6869 16.9659C84.6187 16.9915 84.5235 17.017 84.4014 17.0426C84.2792 17.071 84.1244 17.0852 83.9369 17.0852C83.6528 17.0852 83.3744 17.0241 83.1017 16.902C82.8318 16.7798 82.6074 16.5938 82.4284 16.3438C82.2522 16.0938 82.1642 15.7784 82.1642 15.3977V8.88636ZM86.8133 17.0682C86.6031 17.0682 86.4227 16.9929 86.2721 16.8423C86.1216 16.6918 86.0463 16.5114 86.0463 16.3011C86.0463 16.0909 86.1216 15.9105 86.2721 15.7599C86.4227 15.6094 86.6031 15.5341 86.8133 15.5341C87.0235 15.5341 87.2039 15.6094 87.3545 15.7599C87.5051 15.9105 87.5804 16.0909 87.5804 16.3011C87.5804 16.4403 87.5449 16.5682 87.4738 16.6847C87.4057 16.8011 87.3133 16.8949 87.1968 16.9659C87.0832 17.0341 86.9554 17.0682 86.8133 17.0682ZM94.0214 11.9205L93.118 12.1761C93.0612 12.0256 92.9774 11.8793 92.8666 11.7372C92.7586 11.5923 92.6109 11.473 92.4234 11.3793C92.2359 11.2855 91.9958 11.2386 91.7032 11.2386C91.3027 11.2386 90.9689 11.331 90.7018 11.5156C90.4376 11.6974 90.3055 11.929 90.3055 12.2102C90.3055 12.4602 90.3964 12.6577 90.5782 12.8026C90.7601 12.9474 91.0441 13.0682 91.4305 13.1648L92.4021 13.4034C92.9873 13.5455 93.4234 13.7628 93.7103 14.0554C93.9973 14.3452 94.1407 14.7187 94.1407 15.1761C94.1407 15.5511 94.0328 15.8864 93.8169 16.1818C93.6038 16.4773 93.3055 16.7102 92.922 16.8807C92.5385 17.0511 92.0924 17.1364 91.5839 17.1364C90.9163 17.1364 90.3637 16.9915 89.9262 16.7017C89.4887 16.4119 89.2118 15.9886 89.0953 15.4318L90.0498 15.1932C90.1407 15.5455 90.3126 15.8097 90.5655 15.9858C90.8211 16.1619 91.1549 16.25 91.5669 16.25C92.0356 16.25 92.4078 16.1506 92.6833 15.9517C92.9618 15.75 93.101 15.5085 93.101 15.2273C93.101 15 93.0214 14.8097 92.8623 14.6562C92.7032 14.5 92.4589 14.3835 92.1294 14.3068L91.0385 14.0511C90.439 13.9091 89.9987 13.6889 89.7174 13.3906C89.439 13.0895 89.2998 12.7131 89.2998 12.2614C89.2998 11.892 89.4035 11.5653 89.6109 11.2812C89.8211 10.9972 90.1066 10.7741 90.4674 10.6122C90.8311 10.4503 91.243 10.3693 91.7032 10.3693C92.351 10.3693 92.8595 10.5114 93.2288 10.7955C93.601 11.0795 93.8652 11.4545 94.0214 11.9205ZM98.5012 10.4545V11.3068H95.1091V10.4545H98.5012ZM96.0978 8.88636H97.1034V15.125C97.1034 15.4091 97.1446 15.6222 97.227 15.7642C97.3123 15.9034 97.4202 15.9972 97.5509 16.0455C97.6844 16.0909 97.825 16.1136 97.9728 16.1136C98.0836 16.1136 98.1745 16.108 98.2455 16.0966C98.3165 16.0824 98.3733 16.071 98.4159 16.0625L98.6205 16.9659C98.5523 16.9915 98.4571 17.017 98.335 17.0426C98.2128 17.071 98.058 17.0852 97.8705 17.0852C97.5864 17.0852 97.308 17.0241 97.0353 16.902C96.7654 16.7798 96.5409 16.5938 96.362 16.3438C96.1858 16.0938 96.0978 15.7784 96.0978 15.3977V8.88636ZM102.603 17.1364C102.012 17.1364 101.493 16.9957 101.047 16.7145C100.604 16.4332 100.258 16.0398 100.008 15.5341C99.7604 15.0284 99.6368 14.4375 99.6368 13.7614C99.6368 13.0795 99.7604 12.4844 100.008 11.9759C100.258 11.4673 100.604 11.0724 101.047 10.7912C101.493 10.5099 102.012 10.3693 102.603 10.3693C103.194 10.3693 103.711 10.5099 104.154 10.7912C104.6 11.0724 104.946 11.4673 105.194 11.9759C105.444 12.4844 105.569 13.0795 105.569 13.7614C105.569 14.4375 105.444 15.0284 105.194 15.5341C104.946 16.0398 104.6 16.4332 104.154 16.7145C103.711 16.9957 103.194 17.1364 102.603 17.1364ZM102.603 16.233C103.052 16.233 103.421 16.1179 103.711 15.8878C104 15.6577 104.215 15.3551 104.354 14.9801C104.493 14.6051 104.563 14.1989 104.563 13.7614C104.563 13.3239 104.493 12.9162 104.354 12.5384C104.215 12.1605 104 11.8551 103.711 11.6222C103.421 11.3892 103.052 11.2727 102.603 11.2727C102.154 11.2727 101.785 11.3892 101.495 11.6222C101.205 11.8551 100.991 12.1605 100.851 12.5384C100.712 12.9162 100.643 13.3239 100.643 13.7614C100.643 14.1989 100.712 14.6051 100.851 14.9801C100.991 15.3551 101.205 15.6577 101.495 15.8878C101.785 16.1179 102.154 16.233 102.603 16.233ZM107.104 17V10.4545H108.075V11.4432H108.144C108.263 11.1193 108.479 10.8565 108.791 10.6548C109.104 10.4531 109.456 10.3523 109.848 10.3523C109.922 10.3523 110.014 10.3537 110.125 10.3565C110.236 10.3594 110.32 10.3636 110.377 10.3693V11.392C110.342 11.3835 110.264 11.3707 110.142 11.3537C110.023 11.3338 109.896 11.3239 109.763 11.3239C109.445 11.3239 109.161 11.3906 108.911 11.5241C108.663 11.6548 108.467 11.8366 108.323 12.0696C108.181 12.2997 108.109 12.5625 108.109 12.858V17H107.104ZM114.114 17.1364C113.483 17.1364 112.939 16.9972 112.482 16.7188C112.027 16.4375 111.676 16.0455 111.429 15.5426C111.185 15.0369 111.063 14.4489 111.063 13.7784C111.063 13.108 111.185 12.517 111.429 12.0057C111.676 11.4915 112.02 11.0909 112.46 10.804C112.904 10.5142 113.421 10.3693 114.011 10.3693C114.352 10.3693 114.689 10.4261 115.021 10.5398C115.354 10.6534 115.656 10.8381 115.929 11.0938C116.202 11.3466 116.419 11.6818 116.581 12.0994C116.743 12.517 116.824 13.0312 116.824 13.642V14.0682H111.779V13.1989H115.801C115.801 12.8295 115.727 12.5 115.58 12.2102C115.435 11.9205 115.227 11.6918 114.957 11.5241C114.69 11.3565 114.375 11.2727 114.011 11.2727C113.611 11.2727 113.264 11.3722 112.972 11.571C112.682 11.767 112.459 12.0227 112.303 12.3381C112.146 12.6534 112.068 12.9915 112.068 13.3523V13.9318C112.068 14.4261 112.154 14.8452 112.324 15.1889C112.497 15.5298 112.737 15.7898 113.044 15.9688C113.351 16.1449 113.707 16.233 114.114 16.233C114.378 16.233 114.617 16.196 114.83 16.1222C115.046 16.0455 115.232 15.9318 115.388 15.7812C115.544 15.6278 115.665 15.4375 115.75 15.2102L116.722 15.483C116.619 15.8125 116.448 16.1023 116.206 16.3523C115.965 16.5994 115.666 16.7926 115.311 16.9318C114.956 17.0682 114.557 17.1364 114.114 17.1364Z" fill="#4F4F4F"/>
<rect x="0.835938" y="0.5" width="131.328" height="24" rx="2.5" stroke="#4F4F4F"/>
</svg>
