<svg width="14" height="9" viewBox="0 0 14 9" fill="none" xmlns="http://www.w3.org/2000/svg">
<path d="M11.6689 8.45827H13.1279C13.5439 8.45827 13.7529 8.25027 13.6279 7.84427C13.314 7.21184 12.8988 6.63491 12.3989 6.13627C12.2315 5.93866 12.0245 5.73607 11.8394 5.55491L11.8394 5.5549C11.6442 5.36387 11.4734 5.19667 11.3989 5.08427C11.1789 4.80327 11.2419 4.67827 11.3989 4.43827C12.17 3.38981 12.8264 2.2617 13.3569 1.07327C13.4499 0.761268 13.3569 0.542268 12.9199 0.542268H11.4609C11.3242 0.532812 11.1881 0.56835 11.0735 0.643461C10.9588 0.718572 10.8719 0.829132 10.8259 0.958269C10.3765 2.03335 9.7728 3.03722 9.03394 3.93827C8.68994 4.28227 8.54494 4.38627 8.35694 4.38627C8.26294 4.38627 8.12794 4.28227 8.12794 3.96927V1.07327C8.12794 0.698269 8.02394 0.542268 7.71094 0.542268H5.41894C5.32541 0.538389 5.23405 0.571094 5.16423 0.633447C5.0944 0.695801 5.05162 0.782898 5.04494 0.876268C5.04494 1.01263 5.1221 1.10878 5.22051 1.23142C5.37759 1.42716 5.58882 1.69038 5.62694 2.29227V4.43827C5.62694 4.90727 5.54494 4.99027 5.35694 4.99027C4.86694 4.99027 3.65894 3.17827 2.95094 1.09427C2.80394 0.709268 2.66894 0.542268 2.29394 0.542268H0.835938C0.418938 0.542268 0.335938 0.740268 0.335938 0.959268C0.716879 2.7274 1.50511 4.38227 2.63794 5.79227C3.11511 6.55735 3.76721 7.19812 4.54053 7.6618C5.31386 8.12548 6.18628 8.39881 7.08594 8.45927C8.01294 8.45927 8.12794 8.25127 8.12794 7.89627V6.58427C8.12794 6.16727 8.21094 6.08427 8.51294 6.08427C8.73194 6.08427 9.09694 6.18827 9.96094 7.02127C10.2571 7.3174 10.4795 7.56495 10.6605 7.76648L10.6606 7.7665C11.0848 8.2387 11.2821 8.45827 11.6689 8.45827Z" fill="#4F4F4F"/>
</svg>
