<svg width="8" height="8" viewBox="0 0 8 8" fill="none" xmlns="http://www.w3.org/2000/svg">
<path d="M4.70449 3.99915L7.85221 0.856425C7.94629 0.762341 7.99915 0.634737 7.99915 0.501682C7.99915 0.368628 7.94629 0.241023 7.85221 0.146939C7.75812 0.0528557 7.63052 0 7.49747 0C7.36441 0 7.23681 0.0528557 7.14272 0.146939L4 3.29466L0.857278 0.146939C0.763194 0.0528557 0.635589 1.18132e-07 0.502535 1.19123e-07C0.369481 1.20114e-07 0.241876 0.0528557 0.147792 0.146939C0.0537084 0.241023 0.000852802 0.368628 0.000852801 0.501682C0.0008528 0.634737 0.0537084 0.762341 0.147792 0.856425L3.29551 3.99915L0.147792 7.14187C0.100962 7.18832 0.0637917 7.24358 0.0384257 7.30446C0.0130598 7.36535 0 7.43065 0 7.49661C0 7.56257 0.0130598 7.62788 0.0384257 7.68876C0.0637917 7.74965 0.100962 7.80491 0.147792 7.85135C0.19424 7.89818 0.2495 7.93536 0.310386 7.96072C0.371271 7.98609 0.436577 7.99915 0.502535 7.99915C0.568493 7.99915 0.633799 7.98609 0.694684 7.96072C0.75557 7.93536 0.81083 7.89818 0.857278 7.85135L4 4.70364L7.14272 7.85135C7.18917 7.89818 7.24443 7.93536 7.30532 7.96072C7.3662 7.98609 7.43151 7.99915 7.49747 7.99915C7.56342 7.99915 7.62873 7.98609 7.68961 7.96072C7.7505 7.93536 7.80576 7.89818 7.85221 7.85135C7.89904 7.80491 7.93621 7.74965 7.96158 7.68876C7.98694 7.62788 8 7.56257 8 7.49661C8 7.43065 7.98694 7.36535 7.96158 7.30446C7.93621 7.24358 7.89904 7.18832 7.85221 7.14187L4.70449 3.99915Z" fill="#4F4F4F"/>
</svg>
